<svg xmlns="http://www.w3.org/2000/svg" xmlns:xlink="http://www.w3.org/1999/xlink" width="900" height="350" viewBox="0 0 900 350" role="img" aria-label="Footer"><title>Footer</title><desc>Build  ·  Explore  ·  Understand. Software Engineering · Systems · AI · Mathematics.</desc><defs><linearGradient id="fg" x1="0" y1="0" x2="0" y2="1"><stop offset="0" stop-color="#F5ECD6"/><stop offset="1" stop-color="#E6E4CF"/></linearGradient><pattern id="ft" width="56" height="56" patternUnits="userSpaceOnUse"><rect x="9" y="9" width="38" height="38" fill="none" stroke="#B38B34" stroke-width=".8"/><path d="M28,2 L54,28 L28,54 L2,28 Z" fill="none" stroke="#B38B34" stroke-width=".8"/><circle cx="28" cy="28" r="3" fill="none" stroke="#B38B34" stroke-width=".8"/></pattern></defs><style>
.a{animation-timing-function:ease-in-out;animation-iteration-count:infinite;animation-direction:alternate}
.kb{transform-box:fill-box;transform-origin:50% 45%;animation-name:kb;animation-duration:32s}
.glint{transform-box:fill-box;transform-origin:center;animation-name:glint;animation-duration:4s}
.spin{transform-box:fill-box;transform-origin:center;animation-name:spin;animation-duration:90s;animation-timing-function:linear;animation-direction:normal}
.flow{animation-name:flow;animation-duration:6s;animation-timing-function:linear;animation-direction:normal}
.breathe{animation-name:breathe;animation-duration:7s}
@keyframes kb{from{transform:scale(1)}to{transform:scale(1.06)}}
@keyframes glint{0%{opacity:.3;transform:scale(.6)}60%{opacity:1;transform:scale(1.1)}100%{opacity:.4;transform:scale(.7)}}
@keyframes spin{to{transform:rotate(360deg)}}
@keyframes flow{to{stroke-dashoffset:-48}}
@keyframes breathe{from{opacity:.55}to{opacity:1}}
@media (prefers-reduced-motion: reduce){.a{animation:none}}
</style><rect width="900" height="350" fill="url(#fg)"/><rect width="900" height="350" fill="url(#ft)" opacity=".13"/><path d="M-20.0,0 C-20.0,23.8 -5.0,29.9 2.0,34.0 C9.0,29.9 24.0,23.8 24.0,0 Z" fill="#2A8C82" stroke="#17332F" stroke-width="1" opacity="0.95"/><path d="M24.0,0 C24.0,23.8 39.0,29.9 46.0,34.0 C53.0,29.9 68.0,23.8 68.0,0 Z" fill="#C4573C" stroke="#17332F" stroke-width="1" opacity="0.95"/><path d="M68.0,0 C68.0,23.8 83.0,29.9 90.0,34.0 C97.0,29.9 112.0,23.8 112.0,0 Z" fill="#8FB39A" stroke="#17332F" stroke-width="1" opacity="0.95"/><path d="M112.0,0 C112.0,23.8 127.0,29.9 134.0,34.0 C141.0,29.9 156.0,23.8 156.0,0 Z" fill="#A99CD0" stroke="#17332F" stroke-width="1" opacity="0.95"/><path d="M156.0,0 C156.0,23.8 171.0,29.9 178.0,34.0 C185.0,29.9 200.0,23.8 200.0,0 Z" fill="#2A8C82" stroke="#17332F" stroke-width="1" opacity="0.95"/><path d="M200.0,0 C200.0,23.8 215.0,29.9 222.0,34.0 C229.0,29.9 244.0,23.8 244.0,0 Z" fill="#C4573C" stroke="#17332F" stroke-width="1" opacity="0.95"/><path d="M244.0,0 C244.0,23.8 259.0,29.9 266.0,34.0 C273.0,29.9 288.0,23.8 288.0,0 Z" fill="#8FB39A" stroke="#17332F" stroke-width="1" opacity="0.95"/><path d="M288.0,0 C288.0,23.8 303.0,29.9 310.0,34.0 C317.0,29.9 332.0,23.8 332.0,0 Z" fill="#A99CD0" stroke="#17332F" stroke-width="1" opacity="0.95"/><path d="M332.0,0 C332.0,23.8 347.0,29.9 354.0,34.0 C361.0,29.9 376.0,23.8 376.0,0 Z" fill="#2A8C82" stroke="#17332F" stroke-width="1" opacity="0.95"/><path d="M376.0,0 C376.0,23.8 391.0,29.9 398.0,34.0 C405.0,29.9 420.0,23.8 420.0,0 Z" fill="#C4573C" stroke="#17332F" stroke-width="1" opacity="0.95"/><path d="M420.0,0 C420.0,23.8 435.0,29.9 442.0,34.0 C449.0,29.9 464.0,23.8 464.0,0 Z" fill="#8FB39A" stroke="#17332F" stroke-width="1" opacity="0.95"/><path d="M464.0,0 C464.0,23.8 479.0,29.9 486.0,34.0 C493.0,29.9 508.0,23.8 508.0,0 Z" fill="#A99CD0" stroke="#17332F" stroke-width="1" opacity="0.95"/><path d="M508.0,0 C508.0,23.8 523.0,29.9 530.0,34.0 C537.0,29.9 552.0,23.8 552.0,0 Z" fill="#2A8C82" stroke="#17332F" stroke-width="1" opacity="0.95"/><path d="M552.0,0 C552.0,23.8 567.0,29.9 574.0,34.0 C581.0,29.9 596.0,23.8 596.0,0 Z" fill="#C4573C" stroke="#17332F" stroke-width="1" opacity="0.95"/><path d="M596.0,0 C596.0,23.8 611.0,29.9 618.0,34.0 C625.0,29.9 640.0,23.8 640.0,0 Z" fill="#8FB39A" stroke="#17332F" stroke-width="1" opacity="0.95"/><path d="M640.0,0 C640.0,23.8 655.0,29.9 662.0,34.0 C669.0,29.9 684.0,23.8 684.0,0 Z" fill="#A99CD0" stroke="#17332F" stroke-width="1" opacity="0.95"/><path d="M684.0,0 C684.0,23.8 699.0,29.9 706.0,34.0 C713.0,29.9 728.0,23.8 728.0,0 Z" fill="#2A8C82" stroke="#17332F" stroke-width="1" opacity="0.95"/><path d="M728.0,0 C728.0,23.8 743.0,29.9 750.0,34.0 C757.0,29.9 772.0,23.8 772.0,0 Z" fill="#C4573C" stroke="#17332F" stroke-width="1" opacity="0.95"/><path d="M772.0,0 C772.0,23.8 787.0,29.9 794.0,34.0 C801.0,29.9 816.0,23.8 816.0,0 Z" fill="#8FB39A" stroke="#17332F" stroke-width="1" opacity="0.95"/><path d="M816.0,0 C816.0,23.8 831.0,29.9 838.0,34.0 C845.0,29.9 860.0,23.8 860.0,0 Z" fill="#A99CD0" stroke="#17332F" stroke-width="1" opacity="0.95"/><path d="M860.0,0 C860.0,23.8 875.0,29.9 882.0,34.0 C889.0,29.9 904.0,23.8 904.0,0 Z" fill="#2A8C82" stroke="#17332F" stroke-width="1" opacity="0.95"/><path d="M904.0,0 C904.0,23.8 919.0,29.9 926.0,34.0 C933.0,29.9 948.0,23.8 948.0,0 Z" fill="#C4573C" stroke="#17332F" stroke-width="1" opacity="0.95"/><path d="M948.0,0 C948.0,23.8 963.0,29.9 970.0,34.0 C977.0,29.9 992.0,23.8 992.0,0 Z" fill="#8FB39A" stroke="#17332F" stroke-width="1" opacity="0.95"/><path d="M-44.0,20 C-44.0,43.8 -29.0,49.9 -22.0,54.0 C-15.0,49.9 0.0,43.8 0.0,20 Z" fill="#C4573C" stroke="#17332F" stroke-width="1" opacity="0.85"/><path d="M0.0,20 C0.0,43.8 15.0,49.9 22.0,54.0 C29.0,49.9 44.0,43.8 44.0,20 Z" fill="#8FB39A" stroke="#17332F" stroke-width="1" opacity="0.85"/><path d="M44.0,20 C44.0,43.8 59.0,49.9 66.0,54.0 C73.0,49.9 88.0,43.8 88.0,20 Z" fill="#A99CD0" stroke="#17332F" stroke-width="1" opacity="0.85"/><path d="M88.0,20 C88.0,43.8 103.0,49.9 110.0,54.0 C117.0,49.9 132.0,43.8 132.0,20 Z" fill="#2A8C82" stroke="#17332F" stroke-width="1" opacity="0.85"/><path d="M132.0,20 C132.0,43.8 147.0,49.9 154.0,54.0 C161.0,49.9 176.0,43.8 176.0,20 Z" fill="#C4573C" stroke="#17332F" stroke-width="1" opacity="0.85"/><path d="M176.0,20 C176.0,43.8 191.0,49.9 198.0,54.0 C205.0,49.9 220.0,43.8 220.0,20 Z" fill="#8FB39A" stroke="#17332F" stroke-width="1" opacity="0.85"/><path d="M220.0,20 C220.0,43.8 235.0,49.9 242.0,54.0 C249.0,49.9 264.0,43.8 264.0,20 Z" fill="#A99CD0" stroke="#17332F" stroke-width="1" opacity="0.85"/><path d="M264.0,20 C264.0,43.8 279.0,49.9 286.0,54.0 C293.0,49.9 308.0,43.8 308.0,20 Z" fill="#2A8C82" stroke="#17332F" stroke-width="1" opacity="0.85"/><path d="M308.0,20 C308.0,43.8 323.0,49.9 330.0,54.0 C337.0,49.9 352.0,43.8 352.0,20 Z" fill="#C4573C" stroke="#17332F" stroke-width="1" opacity="0.85"/><path d="M352.0,20 C352.0,43.8 367.0,49.9 374.0,54.0 C381.0,49.9 396.0,43.8 396.0,20 Z" fill="#8FB39A" stroke="#17332F" stroke-width="1" opacity="0.85"/><path d="M396.0,20 C396.0,43.8 411.0,49.9 418.0,54.0 C425.0,49.9 440.0,43.8 440.0,20 Z" fill="#A99CD0" stroke="#17332F" stroke-width="1" opacity="0.85"/><path d="M440.0,20 C440.0,43.8 455.0,49.9 462.0,54.0 C469.0,49.9 484.0,43.8 484.0,20 Z" fill="#2A8C82" stroke="#17332F" stroke-width="1" opacity="0.85"/><path d="M484.0,20 C484.0,43.8 499.0,49.9 506.0,54.0 C513.0,49.9 528.0,43.8 528.0,20 Z" fill="#C4573C" stroke="#17332F" stroke-width="1" opacity="0.85"/><path d="M528.0,20 C528.0,43.8 543.0,49.9 550.0,54.0 C557.0,49.9 572.0,43.8 572.0,20 Z" fill="#8FB39A" stroke="#17332F" stroke-width="1" opacity="0.85"/><path d="M572.0,20 C572.0,43.8 587.0,49.9 594.0,54.0 C601.0,49.9 616.0,43.8 616.0,20 Z" fill="#A99CD0" stroke="#17332F" stroke-width="1" opacity="0.85"/><path d="M616.0,20 C616.0,43.8 631.0,49.9 638.0,54.0 C645.0,49.9 660.0,43.8 660.0,20 Z" fill="#2A8C82" stroke="#17332F" stroke-width="1" opacity="0.85"/><path d="M660.0,20 C660.0,43.8 675.0,49.9 682.0,54.0 C689.0,49.9 704.0,43.8 704.0,20 Z" fill="#C4573C" stroke="#17332F" stroke-width="1" opacity="0.85"/><path d="M704.0,20 C704.0,43.8 719.0,49.9 726.0,54.0 C733.0,49.9 748.0,43.8 748.0,20 Z" fill="#8FB39A" stroke="#17332F" stroke-width="1" opacity="0.85"/><path d="M748.0,20 C748.0,43.8 763.0,49.9 770.0,54.0 C777.0,49.9 792.0,43.8 792.0,20 Z" fill="#A99CD0" stroke="#17332F" stroke-width="1" opacity="0.85"/><path d="M792.0,20 C792.0,43.8 807.0,49.9 814.0,54.0 C821.0,49.9 836.0,43.8 836.0,20 Z" fill="#2A8C82" stroke="#17332F" stroke-width="1" opacity="0.85"/><path d="M836.0,20 C836.0,43.8 851.0,49.9 858.0,54.0 C865.0,49.9 880.0,43.8 880.0,20 Z" fill="#C4573C" stroke="#17332F" stroke-width="1" opacity="0.85"/><path d="M880.0,20 C880.0,43.8 895.0,49.9 902.0,54.0 C909.0,49.9 924.0,43.8 924.0,20 Z" fill="#8FB39A" stroke="#17332F" stroke-width="1" opacity="0.85"/><path d="M924.0,20 C924.0,43.8 939.0,49.9 946.0,54.0 C953.0,49.9 968.0,43.8 968.0,20 Z" fill="#A99CD0" stroke="#17332F" stroke-width="1" opacity="0.85"/><path d="M-24.0,40 C-24.0,63.8 -9.0,69.9 -2.0,74.0 C5.0,69.9 20.0,63.8 20.0,40 Z" fill="#8FB39A" stroke="#17332F" stroke-width="1" opacity="0.75"/><path d="M20.0,40 C20.0,63.8 35.0,69.9 42.0,74.0 C49.0,69.9 64.0,63.8 64.0,40 Z" fill="#A99CD0" stroke="#17332F" stroke-width="1" opacity="0.75"/><path d="M64.0,40 C64.0,63.8 79.0,69.9 86.0,74.0 C93.0,69.9 108.0,63.8 108.0,40 Z" fill="#2A8C82" stroke="#17332F" stroke-width="1" opacity="0.75"/><path d="M108.0,40 C108.0,63.8 123.0,69.9 130.0,74.0 C137.0,69.9 152.0,63.8 152.0,40 Z" fill="#C4573C" stroke="#17332F" stroke-width="1" opacity="0.75"/><path d="M152.0,40 C152.0,63.8 167.0,69.9 174.0,74.0 C181.0,69.9 196.0,63.8 196.0,40 Z" fill="#8FB39A" stroke="#17332F" stroke-width="1" opacity="0.75"/><path d="M196.0,40 C196.0,63.8 211.0,69.9 218.0,74.0 C225.0,69.9 240.0,63.8 240.0,40 Z" fill="#A99CD0" stroke="#17332F" stroke-width="1" opacity="0.75"/><path d="M240.0,40 C240.0,63.8 255.0,69.9 262.0,74.0 C269.0,69.9 284.0,63.8 284.0,40 Z" fill="#2A8C82" stroke="#17332F" stroke-width="1" opacity="0.75"/><path d="M284.0,40 C284.0,63.8 299.0,69.9 306.0,74.0 C313.0,69.9 328.0,63.8 328.0,40 Z" fill="#C4573C" stroke="#17332F" stroke-width="1" opacity="0.75"/><path d="M328.0,40 C328.0,63.8 343.0,69.9 350.0,74.0 C357.0,69.9 372.0,63.8 372.0,40 Z" fill="#8FB39A" stroke="#17332F" stroke-width="1" opacity="0.75"/><path d="M372.0,40 C372.0,63.8 387.0,69.9 394.0,74.0 C401.0,69.9 416.0,63.8 416.0,40 Z" fill="#A99CD0" stroke="#17332F" stroke-width="1" opacity="0.75"/><path d="M416.0,40 C416.0,63.8 431.0,69.9 438.0,74.0 C445.0,69.9 460.0,63.8 460.0,40 Z" fill="#2A8C82" stroke="#17332F" stroke-width="1" opacity="0.75"/><path d="M460.0,40 C460.0,63.8 475.0,69.9 482.0,74.0 C489.0,69.9 504.0,63.8 504.0,40 Z" fill="#C4573C" stroke="#17332F" stroke-width="1" opacity="0.75"/><path d="M504.0,40 C504.0,63.8 519.0,69.9 526.0,74.0 C533.0,69.9 548.0,63.8 548.0,40 Z" fill="#8FB39A" stroke="#17332F" stroke-width="1" opacity="0.75"/><path d="M548.0,40 C548.0,63.8 563.0,69.9 570.0,74.0 C577.0,69.9 592.0,63.8 592.0,40 Z" fill="#A99CD0" stroke="#17332F" stroke-width="1" opacity="0.75"/><path d="M592.0,40 C592.0,63.8 607.0,69.9 614.0,74.0 C621.0,69.9 636.0,63.8 636.0,40 Z" fill="#2A8C82" stroke="#17332F" stroke-width="1" opacity="0.75"/><path d="M636.0,40 C636.0,63.8 651.0,69.9 658.0,74.0 C665.0,69.9 680.0,63.8 680.0,40 Z" fill="#C4573C" stroke="#17332F" stroke-width="1" opacity="0.75"/><path d="M680.0,40 C680.0,63.8 695.0,69.9 702.0,74.0 C709.0,69.9 724.0,63.8 724.0,40 Z" fill="#8FB39A" stroke="#17332F" stroke-width="1" opacity="0.75"/><path d="M724.0,40 C724.0,63.8 739.0,69.9 746.0,74.0 C753.0,69.9 768.0,63.8 768.0,40 Z" fill="#A99CD0" stroke="#17332F" stroke-width="1" opacity="0.75"/><path d="M768.0,40 C768.0,63.8 783.0,69.9 790.0,74.0 C797.0,69.9 812.0,63.8 812.0,40 Z" fill="#2A8C82" stroke="#17332F" stroke-width="1" opacity="0.75"/><path d="M812.0,40 C812.0,63.8 827.0,69.9 834.0,74.0 C841.0,69.9 856.0,63.8 856.0,40 Z" fill="#C4573C" stroke="#17332F" stroke-width="1" opacity="0.75"/><path d="M856.0,40 C856.0,63.8 871.0,69.9 878.0,74.0 C885.0,69.9 900.0,63.8 900.0,40 Z" fill="#8FB39A" stroke="#17332F" stroke-width="1" opacity="0.75"/><path d="M900.0,40 C900.0,63.8 915.0,69.9 922.0,74.0 C929.0,69.9 944.0,63.8 944.0,40 Z" fill="#A99CD0" stroke="#17332F" stroke-width="1" opacity="0.75"/><path d="M944.0,40 C944.0,63.8 959.0,69.9 966.0,74.0 C973.0,69.9 988.0,63.8 988.0,40 Z" fill="#2A8C82" stroke="#17332F" stroke-width="1" opacity="0.75"/><text x="450" y="164" text-anchor="middle" font-family="Georgia,'Iowan Old Style','Palatino Linotype','DejaVu Serif',serif" font-size="31" letter-spacing="1" fill="#17332F">Build  ·  Explore  ·  Understand</text><text x="450" y="198" text-anchor="middle" font-family="'Amiri','Scheherazade New','Noto Naskh Arabic','Geeza Pro','Segoe UI',Tahoma,serif" font-size="23" fill="#A2412A">ابنِ · اكتشف · افهم</text><text x="450" y="226" text-anchor="middle" font-family="'Trebuchet MS','Segoe UI',Verdana,'DejaVu Sans',sans-serif" font-size="13" letter-spacing="1" fill="#496660">Software Engineering · Systems · AI · Mathematics</text><path d="M0,280.0 H900" stroke="#B38B34" stroke-width="1" opacity=".6"/><g class="breathe a" style="animation-delay:-0s"><polygon points="28.8,268.0 31.6,273.1 37.3,271.5 35.7,277.2 40.8,280.0 35.7,282.8 37.3,288.5 31.6,286.9 28.8,292.0 26.0,286.9 20.3,288.5 21.9,282.8 16.8,280.0 21.9,277.2 20.3,271.5 26.0,273.1" fill="#2A8C82" stroke="#17332F" stroke-width="0.8" stroke-linejoin="round" opacity="1"/></g><path d="M44.4,276.2 L48.2,280.0 L44.4,283.8 L40.6,280.0 Z" fill="#B38B34"/><g><polygon points="60.0,268.0 62.8,273.1 68.5,271.5 66.9,277.2 72.0,280.0 66.9,282.8 68.5,288.5 62.8,286.9 60.0,292.0 57.2,286.9 51.5,288.5 53.1,282.8 48.0,280.0 53.1,277.2 51.5,271.5 57.2,273.1" fill="#C4573C" stroke="#17332F" stroke-width="0.8" stroke-linejoin="round" opacity="1"/></g><path d="M75.6,276.2 L79.4,280.0 L75.6,283.8 L71.8,280.0 Z" fill="#B38B34"/><g><polygon points="91.2,268.0 94.0,273.1 99.7,271.5 98.1,277.2 103.2,280.0 98.1,282.8 99.7,288.5 94.0,286.9 91.2,292.0 88.4,286.9 82.7,288.5 84.3,282.8 79.2,280.0 84.3,277.2 82.7,271.5 88.4,273.1" fill="#8FB39A" stroke="#17332F" stroke-width="0.8" stroke-linejoin="round" opacity="1"/></g><path d="M106.8,276.2 L110.6,280.0 L106.8,283.8 L103.0,280.0 Z" fill="#B38B34"/><g class="breathe a" style="animation-delay:-3s"><polygon points="122.4,268.0 125.2,273.1 130.9,271.5 129.3,277.2 134.4,280.0 129.3,282.8 130.9,288.5 125.2,286.9 122.4,292.0 119.6,286.9 113.9,288.5 115.5,282.8 110.4,280.0 115.5,277.2 113.9,271.5 119.6,273.1" fill="#A99CD0" stroke="#17332F" stroke-width="0.8" stroke-linejoin="round" opacity="1"/></g><path d="M138.0,276.2 L141.8,280.0 L138.0,283.8 L134.2,280.0 Z" fill="#B38B34"/><g><polygon points="153.6,268.0 156.4,273.1 162.1,271.5 160.5,277.2 165.6,280.0 160.5,282.8 162.1,288.5 156.4,286.9 153.6,292.0 150.8,286.9 145.1,288.5 146.7,282.8 141.6,280.0 146.7,277.2 145.1,271.5 150.8,273.1" fill="#2A8C82" stroke="#17332F" stroke-width="0.8" stroke-linejoin="round" opacity="1"/></g><path d="M169.2,276.2 L173.0,280.0 L169.2,283.8 L165.4,280.0 Z" fill="#B38B34"/><g><polygon points="184.8,268.0 187.6,273.1 193.3,271.5 191.7,277.2 196.8,280.0 191.7,282.8 193.3,288.5 187.6,286.9 184.8,292.0 182.0,286.9 176.3,288.5 177.9,282.8 172.8,280.0 177.9,277.2 176.3,271.5 182.0,273.1" fill="#C4573C" stroke="#17332F" stroke-width="0.8" stroke-linejoin="round" opacity="1"/></g><path d="M200.4,276.2 L204.2,280.0 L200.4,283.8 L196.6,280.0 Z" fill="#B38B34"/><g class="breathe a" style="animation-delay:-6s"><polygon points="216.0,268.0 218.8,273.1 224.5,271.5 222.9,277.2 228.0,280.0 222.9,282.8 224.5,288.5 218.8,286.9 216.0,292.0 213.2,286.9 207.5,288.5 209.1,282.8 204.0,280.0 209.1,277.2 207.5,271.5 213.2,273.1" fill="#8FB39A" stroke="#17332F" stroke-width="0.8" stroke-linejoin="round" opacity="1"/></g><path d="M231.6,276.2 L235.4,280.0 L231.6,283.8 L227.8,280.0 Z" fill="#B38B34"/><g><polygon points="247.2,268.0 250.0,273.1 255.7,271.5 254.1,277.2 259.2,280.0 254.1,282.8 255.7,288.5 250.0,286.9 247.2,292.0 244.4,286.9 238.7,288.5 240.3,282.8 235.2,280.0 240.3,277.2 238.7,271.5 244.4,273.1" fill="#A99CD0" stroke="#17332F" stroke-width="0.8" stroke-linejoin="round" opacity="1"/></g><path d="M262.8,276.2 L266.6,280.0 L262.8,283.8 L259.0,280.0 Z" fill="#B38B34"/><g><polygon points="278.4,268.0 281.2,273.1 286.9,271.5 285.3,277.2 290.4,280.0 285.3,282.8 286.9,288.5 281.2,286.9 278.4,292.0 275.6,286.9 269.9,288.5 271.5,282.8 266.4,280.0 271.5,277.2 269.9,271.5 275.6,273.1" fill="#2A8C82" stroke="#17332F" stroke-width="0.8" stroke-linejoin="round" opacity="1"/></g><path d="M294.0,276.2 L297.8,280.0 L294.0,283.8 L290.2,280.0 Z" fill="#B38B34"/><g class="breathe a" style="animation-delay:-2s"><polygon points="309.6,268.0 312.4,273.1 318.1,271.5 316.5,277.2 321.6,280.0 316.5,282.8 318.1,288.5 312.4,286.9 309.6,292.0 306.8,286.9 301.1,288.5 302.7,282.8 297.6,280.0 302.7,277.2 301.1,271.5 306.8,273.1" fill="#C4573C" stroke="#17332F" stroke-width="0.8" stroke-linejoin="round" opacity="1"/></g><path d="M325.2,276.2 L329.0,280.0 L325.2,283.8 L321.4,280.0 Z" fill="#B38B34"/><g><polygon points="340.8,268.0 343.6,273.1 349.3,271.5 347.7,277.2 352.8,280.0 347.7,282.8 349.3,288.5 343.6,286.9 340.8,292.0 338.0,286.9 332.3,288.5 333.9,282.8 328.8,280.0 333.9,277.2 332.3,271.5 338.0,273.1" fill="#8FB39A" stroke="#17332F" stroke-width="0.8" stroke-linejoin="round" opacity="1"/></g><path d="M356.4,276.2 L360.2,280.0 L356.4,283.8 L352.6,280.0 Z" fill="#B38B34"/><g><polygon points="372.0,268.0 374.8,273.1 380.5,271.5 378.9,277.2 384.0,280.0 378.9,282.8 380.5,288.5 374.8,286.9 372.0,292.0 369.2,286.9 363.5,288.5 365.1,282.8 360.0,280.0 365.1,277.2 363.5,271.5 369.2,273.1" fill="#A99CD0" stroke="#17332F" stroke-width="0.8" stroke-linejoin="round" opacity="1"/></g><path d="M387.6,276.2 L391.4,280.0 L387.6,283.8 L383.8,280.0 Z" fill="#B38B34"/><g class="breathe a" style="animation-delay:-5s"><polygon points="403.2,268.0 406.0,273.1 411.7,271.5 410.1,277.2 415.2,280.0 410.1,282.8 411.7,288.5 406.0,286.9 403.2,292.0 400.4,286.9 394.7,288.5 396.3,282.8 391.2,280.0 396.3,277.2 394.7,271.5 400.4,273.1" fill="#2A8C82" stroke="#17332F" stroke-width="0.8" stroke-linejoin="round" opacity="1"/></g><path d="M418.8,276.2 L422.6,280.0 L418.8,283.8 L415.0,280.0 Z" fill="#B38B34"/><g><polygon points="434.4,268.0 437.2,273.1 442.9,271.5 441.3,277.2 446.4,280.0 441.3,282.8 442.9,288.5 437.2,286.9 434.4,292.0 431.6,286.9 425.9,288.5 427.5,282.8 422.4,280.0 427.5,277.2 425.9,271.5 431.6,273.1" fill="#C4573C" stroke="#17332F" stroke-width="0.8" stroke-linejoin="round" opacity="1"/></g><path d="M450.0,276.2 L453.8,280.0 L450.0,283.8 L446.2,280.0 Z" fill="#B38B34"/><g><polygon points="465.6,268.0 468.4,273.1 474.1,271.5 472.5,277.2 477.6,280.0 472.5,282.8 474.1,288.5 468.4,286.9 465.6,292.0 462.8,286.9 457.1,288.5 458.7,282.8 453.6,280.0 458.7,277.2 457.1,271.5 462.8,273.1" fill="#8FB39A" stroke="#17332F" stroke-width="0.8" stroke-linejoin="round" opacity="1"/></g><path d="M481.2,276.2 L485.0,280.0 L481.2,283.8 L477.4,280.0 Z" fill="#B38B34"/><g class="breathe a" style="animation-delay:-1s"><polygon points="496.8,268.0 499.6,273.1 505.3,271.5 503.7,277.2 508.8,280.0 503.7,282.8 505.3,288.5 499.6,286.9 496.8,292.0 494.0,286.9 488.3,288.5 489.9,282.8 484.8,280.0 489.9,277.2 488.3,271.5 494.0,273.1" fill="#A99CD0" stroke="#17332F" stroke-width="0.8" stroke-linejoin="round" opacity="1"/></g><path d="M512.4,276.2 L516.2,280.0 L512.4,283.8 L508.6,280.0 Z" fill="#B38B34"/><g><polygon points="528.0,268.0 530.8,273.1 536.5,271.5 534.9,277.2 540.0,280.0 534.9,282.8 536.5,288.5 530.8,286.9 528.0,292.0 525.2,286.9 519.5,288.5 521.1,282.8 516.0,280.0 521.1,277.2 519.5,271.5 525.2,273.1" fill="#2A8C82" stroke="#17332F" stroke-width="0.8" stroke-linejoin="round" opacity="1"/></g><path d="M543.6,276.2 L547.4,280.0 L543.6,283.8 L539.8,280.0 Z" fill="#B38B34"/><g><polygon points="559.2,268.0 562.0,273.1 567.7,271.5 566.1,277.2 571.2,280.0 566.1,282.8 567.7,288.5 562.0,286.9 559.2,292.0 556.4,286.9 550.7,288.5 552.3,282.8 547.2,280.0 552.3,277.2 550.7,271.5 556.4,273.1" fill="#C4573C" stroke="#17332F" stroke-width="0.8" stroke-linejoin="round" opacity="1"/></g><path d="M574.8,276.2 L578.6,280.0 L574.8,283.8 L571.0,280.0 Z" fill="#B38B34"/><g class="breathe a" style="animation-delay:-4s"><polygon points="590.4,268.0 593.2,273.1 598.9,271.5 597.3,277.2 602.4,280.0 597.3,282.8 598.9,288.5 593.2,286.9 590.4,292.0 587.6,286.9 581.9,288.5 583.5,282.8 578.4,280.0 583.5,277.2 581.9,271.5 587.6,273.1" fill="#8FB39A" stroke="#17332F" stroke-width="0.8" stroke-linejoin="round" opacity="1"/></g><path d="M606.0,276.2 L609.8,280.0 L606.0,283.8 L602.2,280.0 Z" fill="#B38B34"/><g><polygon points="621.6,268.0 624.4,273.1 630.1,271.5 628.5,277.2 633.6,280.0 628.5,282.8 630.1,288.5 624.4,286.9 621.6,292.0 618.8,286.9 613.1,288.5 614.7,282.8 609.6,280.0 614.7,277.2 613.1,271.5 618.8,273.1" fill="#A99CD0" stroke="#17332F" stroke-width="0.8" stroke-linejoin="round" opacity="1"/></g><path d="M637.2,276.2 L641.0,280.0 L637.2,283.8 L633.4,280.0 Z" fill="#B38B34"/><g><polygon points="652.8,268.0 655.6,273.1 661.3,271.5 659.7,277.2 664.8,280.0 659.7,282.8 661.3,288.5 655.6,286.9 652.8,292.0 650.0,286.9 644.3,288.5 645.9,282.8 640.8,280.0 645.9,277.2 644.3,271.5 650.0,273.1" fill="#2A8C82" stroke="#17332F" stroke-width="0.8" stroke-linejoin="round" opacity="1"/></g><path d="M668.4,276.2 L672.2,280.0 L668.4,283.8 L664.6,280.0 Z" fill="#B38B34"/><g class="breathe a" style="animation-delay:-0s"><polygon points="684.0,268.0 686.8,273.1 692.5,271.5 690.9,277.2 696.0,280.0 690.9,282.8 692.5,288.5 686.8,286.9 684.0,292.0 681.2,286.9 675.5,288.5 677.1,282.8 672.0,280.0 677.1,277.2 675.5,271.5 681.2,273.1" fill="#C4573C" stroke="#17332F" stroke-width="0.8" stroke-linejoin="round" opacity="1"/></g><path d="M699.6,276.2 L703.4,280.0 L699.6,283.8 L695.8,280.0 Z" fill="#B38B34"/><g><polygon points="715.2,268.0 718.0,273.1 723.7,271.5 722.1,277.2 727.2,280.0 722.1,282.8 723.7,288.5 718.0,286.9 715.2,292.0 712.4,286.9 706.7,288.5 708.3,282.8 703.2,280.0 708.3,277.2 706.7,271.5 712.4,273.1" fill="#8FB39A" stroke="#17332F" stroke-width="0.8" stroke-linejoin="round" opacity="1"/></g><path d="M730.8,276.2 L734.6,280.0 L730.8,283.8 L727.0,280.0 Z" fill="#B38B34"/><g><polygon points="746.4,268.0 749.2,273.1 754.9,271.5 753.3,277.2 758.4,280.0 753.3,282.8 754.9,288.5 749.2,286.9 746.4,292.0 743.6,286.9 737.9,288.5 739.5,282.8 734.4,280.0 739.5,277.2 737.9,271.5 743.6,273.1" fill="#A99CD0" stroke="#17332F" stroke-width="0.8" stroke-linejoin="round" opacity="1"/></g><path d="M762.0,276.2 L765.8,280.0 L762.0,283.8 L758.2,280.0 Z" fill="#B38B34"/><g class="breathe a" style="animation-delay:-3s"><polygon points="777.6,268.0 780.4,273.1 786.1,271.5 784.5,277.2 789.6,280.0 784.5,282.8 786.1,288.5 780.4,286.9 777.6,292.0 774.8,286.9 769.1,288.5 770.7,282.8 765.6,280.0 770.7,277.2 769.1,271.5 774.8,273.1" fill="#2A8C82" stroke="#17332F" stroke-width="0.8" stroke-linejoin="round" opacity="1"/></g><path d="M793.2,276.2 L797.0,280.0 L793.2,283.8 L789.4,280.0 Z" fill="#B38B34"/><g><polygon points="808.8,268.0 811.6,273.1 817.3,271.5 815.7,277.2 820.8,280.0 815.7,282.8 817.3,288.5 811.6,286.9 808.8,292.0 806.0,286.9 800.3,288.5 801.9,282.8 796.8,280.0 801.9,277.2 800.3,271.5 806.0,273.1" fill="#C4573C" stroke="#17332F" stroke-width="0.8" stroke-linejoin="round" opacity="1"/></g><path d="M824.4,276.2 L828.2,280.0 L824.4,283.8 L820.6,280.0 Z" fill="#B38B34"/><g><polygon points="840.0,268.0 842.8,273.1 848.5,271.5 846.9,277.2 852.0,280.0 846.9,282.8 848.5,288.5 842.8,286.9 840.0,292.0 837.2,286.9 831.5,288.5 833.1,282.8 828.0,280.0 833.1,277.2 831.5,271.5 837.2,273.1" fill="#8FB39A" stroke="#17332F" stroke-width="0.8" stroke-linejoin="round" opacity="1"/></g><path d="M855.6,276.2 L859.4,280.0 L855.6,283.8 L851.8,280.0 Z" fill="#B38B34"/><g class="breathe a" style="animation-delay:-6s"><polygon points="871.2,268.0 874.0,273.1 879.7,271.5 878.1,277.2 883.2,280.0 878.1,282.8 879.7,288.5 874.0,286.9 871.2,292.0 868.4,286.9 862.7,288.5 864.3,282.8 859.2,280.0 864.3,277.2 862.7,271.5 868.4,273.1" fill="#A99CD0" stroke="#17332F" stroke-width="0.8" stroke-linejoin="round" opacity="1"/></g><g transform="translate(450.0,116.0) scale(1)"><path class="glint a" style="animation-delay:-0s" fill="#B38B34" d="M0,-12 L2.4,-2.4 L12,0 L2.4,2.4 L0,12 L-2.4,2.4 L-12,0 L-2.4,-2.4Z"/></g><rect x="0" y="316" width="900" height="34" fill="#17332F"/><path d="M0,316 H900" stroke="#B38B34" stroke-width="2"/><text x="30" y="337" font-family="'Trebuchet MS','Segoe UI',Verdana,'DejaVu Sans',sans-serif" font-size="10.5" fill="#F3EAD3">Artwork: Teal Newcomb (Metal Kirin)</text><text x="870" y="337" text-anchor="end" font-family="'Trebuchet MS','Segoe UI',Verdana,'DejaVu Sans',sans-serif" font-size="11.5" font-weight="700" fill="#E8B27A">NashirTech · ناشر تك</text></svg>