<svg xmlns="http://www.w3.org/2000/svg" xmlns:xlink="http://www.w3.org/1999/xlink" width="900" height="360" viewBox="0 0 900 360" role="img" aria-label="Technologies and skills: C/C++, Python, JavaScript, TypeScript, React, Next.js, Django, FastAPI, PostgreSQL, Docker, Linux, Git"><title>Technologies and skills: C/C++, Python, JavaScript, TypeScript, React, Next.js, Django, FastAPI, PostgreSQL, Docker, Linux, Git</title><style>.a{transform-box:fill-box;transform-origin:center}
.spin{animation:spin 80s linear infinite}
@keyframes spin{to{transform:rotate(360deg)}}
.spinr{animation:spin 110s linear infinite reverse}
.swim{animation:swim 18s ease-in-out infinite alternate}
@keyframes swim{from{transform:translateX(0)}to{transform:translateX(34px)}}
.flag{transform-origin:left center;animation:flag 3.2s ease-in-out infinite alternate}
@keyframes flag{from{transform:skewY(-6deg) scaleX(1)}to{transform:skewY(6deg) scaleX(.9)}}
.rise{animation:rise 9s ease-in infinite}
@keyframes rise{0%{transform:translateY(0);opacity:0}20%{opacity:.95}100%{transform:translateY(-70px);opacity:0}}
.pulse{animation:pulse 6s ease-in-out infinite alternate}
@keyframes pulse{from{opacity:.55}to{opacity:1}}
.kb{animation:kb 24s ease-in-out infinite alternate}
@keyframes kb{from{transform:scale(1)}to{transform:scale(1.07)}}
.dash{animation:dash 7s linear infinite}
@keyframes dash{to{stroke-dashoffset:-60}}
.shim{animation:shim 9s ease-in-out infinite}
@keyframes shim{0%,55%{transform:translateX(-120px)}100%{transform:translateX(420px)}}
.tw{animation:tw 4s ease-in-out infinite}
@keyframes tw{0%,100%{opacity:.25}50%{opacity:1}}
@media (prefers-reduced-motion: reduce){.spin,.spinr,.swim,.flag,.rise,.pulse,.kb,.dash,.shim,.tw{animation:none}}</style><defs><radialGradient id="gl" cx=".5" cy=".5" r=".5"><stop offset="0" stop-color="#8fd3ff" stop-opacity=".42"/><stop offset="1" stop-color="#8fd3ff" stop-opacity="0"/></radialGradient><linearGradient id="shg" x1="0" y1="0" x2="1" y2="0"><stop offset="0" stop-color="#f0c25a" stop-opacity="0"/><stop offset=".5" stop-color="#f0c25a" stop-opacity=".38"/><stop offset="1" stop-color="#f0c25a" stop-opacity="0"/></linearGradient><filter id="noise" x="0" y="0" width="100%" height="100%"><feTurbulence type="fractalNoise" baseFrequency=".9" numOctaves="2" seed="5"/><feColorMatrix values="0 0 0 0 .4  0 0 0 0 .4  0 0 0 0 .5  0 0 0 .5 -.16"/></filter></defs><rect width="900" height="360" fill="#0b1030"/><path d="M34,14H866L880,28V330L866,344H34L20,330V28Z" fill="#141d4d" stroke="#f0c25a" stroke-width="1.8"/><path d="M40,20H860L874,34V324L860,338H40L26,324V34Z" fill="none" stroke="#f0c25a" stroke-width=".8" opacity=".6"/><g transform="translate(30,24) scale(1,1)" fill="none" stroke="#f0c25a" stroke-width="1.2"><path d="M6,6C26,6 30,18 20,24C12,28 8,20 14,16"/><path d="M6,6C6,26 18,30 24,20C28,12 20,8 16,14"/><circle cx="6" cy="6" r="2.2" fill="#f0c25a"/></g><g transform="translate(870,24) scale(-1,1)" fill="none" stroke="#f0c25a" stroke-width="1.2"><path d="M6,6C26,6 30,18 20,24C12,28 8,20 14,16"/><path d="M6,6C6,26 18,30 24,20C28,12 20,8 16,14"/><circle cx="6" cy="6" r="2.2" fill="#f0c25a"/></g><g transform="translate(30,334) scale(1,-1)" fill="none" stroke="#f0c25a" stroke-width="1.2"><path d="M6,6C26,6 30,18 20,24C12,28 8,20 14,16"/><path d="M6,6C6,26 18,30 24,20C28,12 20,8 16,14"/><circle cx="6" cy="6" r="2.2" fill="#f0c25a"/></g><g transform="translate(870,334) scale(-1,-1)" fill="none" stroke="#f0c25a" stroke-width="1.2"><path d="M6,6C26,6 30,18 20,24C12,28 8,20 14,16"/><path d="M6,6C6,26 18,30 24,20C28,12 20,8 16,14"/><circle cx="6" cy="6" r="2.2" fill="#f0c25a"/></g><path transform="translate(62,53) scale(1.1666666666666667)" d="M0,-8L2,-2L8,0L2,2L0,8L-2,2L-8,0L-2,-2Z" fill="#f0c25a"/><text x="76" y="58" font-family="'JetBrains Mono','SF Mono',SFMono-Regular,Consolas,Menlo,monospace" font-size="12.5" letter-spacing="3" fill="#f0c25a" font-weight="700">III  ·  TECHNOLOGIES &amp; SKILLS</text><path d="M56,82.4 L66,82.2 L76,81.9 L86,81.4 L96,80.8 L106,80.1 L116,79.4 L126,78.7 L136,78.2 L146,77.8 L156,77.6 L166,77.6 L176,77.9 L186,78.3 L196,78.8 L206,79.5 L216,80.2 L226,80.9 L236,81.5 L246,82 L256,82.3 L266,82.4 L276,82.3 L286,82 L296,81.6 L306,81 L316,80.3 L326,79.6 L336,78.9 L346,78.4 L356,77.9 L366,77.7 L376,77.6 L386,77.8 L396,78.1 L406,78.6 L416,79.2 L426,79.9 L436,80.6 L446,81.3 L456,81.8 L466,82.2 L476,82.4 L486,82.4 L496,82.2 L506,81.8 L516,81.2 L526,80.6 L536,79.9 L546,79.2 L556,78.6 L566,78.1 L576,77.7 L586,77.6 L596,77.7 L606,77.9 L616,78.4 L626,79 L636,79.7 L646,80.4 L656,81 L666,81.6 L676,82.1 L686,82.3 L696,82.4 L706,82.3 L716,81.9 L726,81.4 L736,80.8 L746,80.1 L756,79.4 L766,78.8 L776,78.2 L786,77.8 L796,77.6 L806,77.6 L816,77.8 L826,78.2 L836,78.8" fill="none" stroke="#f0c25a" stroke-width="1" opacity=".75"/><path d="M56,82.4 L66,82.2 L76,81.9 L86,81.4 L96,80.8 L106,80.1 L116,79.4 L126,78.7 L136,78.2 L146,77.8 L156,77.6 L166,77.6 L176,77.9 L186,78.3 L196,78.8 L206,79.5 L216,80.2 L226,80.9 L236,81.5 L246,82 L256,82.3 L266,82.4 L276,82.3 L286,82 L296,81.6 L306,81 L316,80.3 L326,79.6 L336,78.9 L346,78.4 L356,77.9 L366,77.7 L376,77.6 L386,77.8 L396,78.1 L406,78.6 L416,79.2 L426,79.9 L436,80.6 L446,81.3 L456,81.8 L466,82.2 L476,82.4 L486,82.4 L496,82.2 L506,81.8 L516,81.2 L526,80.6 L536,79.9 L546,79.2 L556,78.6 L566,78.1 L576,77.7 L586,77.6 L596,77.7 L606,77.9 L616,78.4 L626,79 L636,79.7 L646,80.4 L656,81 L666,81.6 L676,82.1 L686,82.3 L696,82.4 L706,82.3 L716,81.9 L726,81.4 L736,80.8 L746,80.1 L756,79.4 L766,78.8 L776,78.2 L786,77.8 L796,77.6 L806,77.6 L816,77.8 L826,78.2 L836,78.8" fill="none" stroke="#f4e6bb" stroke-width="2" stroke-linecap="round" stroke-dasharray="1 14" class="dash" style="animation-delay:-2s" opacity=".85"/><path transform="translate(146,77.8) scale(0.8333333333333334)" d="M0,-8L2,-2L8,0L2,2L0,8L-2,2L-8,0L-2,-2Z" fill="#f0c25a"/><path transform="translate(326,79.6) scale(0.8333333333333334)" d="M0,-8L2,-2L8,0L2,2L0,8L-2,2L-8,0L-2,-2Z" fill="#f0c25a"/><path transform="translate(506,81.8) scale(0.8333333333333334)" d="M0,-8L2,-2L8,0L2,2L0,8L-2,2L-8,0L-2,-2Z" fill="#f0c25a"/><path transform="translate(686,82.3) scale(0.8333333333333334)" d="M0,-8L2,-2L8,0L2,2L0,8L-2,2L-8,0L-2,-2Z" fill="#f0c25a"/><g transform="translate(121.5,148)"><circle r="42" fill="url(#gl)"/><g class="a spin"><path d="M34.7,0 L36.3,2.7 L37.3,5.6 L36.4,8.3 L34,10.5 L31.9,12.5 L31.2,15 L31.5,18.2 L31.2,21.2 L29.2,23.3 L26.1,24.2 L23.3,25.1 L21.6,27.1 L20.5,30.1 L18.9,32.7 L16.2,33.6 L13,33.1 L10.1,32.8 L7.7,33.8 L5.4,36 L2.8,37.6 L0,37.3 L-2.7,35.5 L-5.1,33.9 L-7.7,33.8 L-10.7,34.8 L-13.8,35.1 L-16.2,33.6 L-17.8,30.8 L-19.3,28.3 L-21.6,27.1 L-24.8,26.7 L-27.7,25.7 L-29.2,23.3 L-29.4,20.1 L-29.7,17.1 L-31.2,15 L-33.9,13.3 L-36,11.1 L-36.4,8.3 L-35.2,5.3 L-34.2,2.6 L-34.7,0 L-36.3,-2.7 L-37.3,-5.6 L-36.4,-8.3 L-34,-10.5 L-31.9,-12.5 L-31.2,-15 L-31.5,-18.2 L-31.2,-21.2 L-29.2,-23.3 L-26.1,-24.2 L-23.3,-25.1 L-21.6,-27.1 L-20.5,-30.1 L-18.9,-32.7 L-16.2,-33.6 L-13,-33.1 L-10.1,-32.8 L-7.7,-33.8 L-5.4,-36 L-2.8,-37.6 L-0,-37.3 L2.7,-35.5 L5.1,-33.9 L7.7,-33.8 L10.7,-34.8 L13.8,-35.1 L16.2,-33.6 L17.8,-30.8 L19.3,-28.3 L21.6,-27.1 L24.8,-26.7 L27.7,-25.7 L29.2,-23.3 L29.4,-20.1 L29.7,-17.1 L31.2,-15 L33.9,-13.3 L36,-11.1 L36.4,-8.3 L35.2,-5.3 L34.2,-2.6Z" fill="#34507f" stroke="#86a8c4" stroke-width="1.2"/><path d="M29.6,0 L30.7,2.3 L30.2,4.5 L28.4,6.5 L26.8,8.3 L26.3,10.3 L26.7,12.9 L26.6,15.4 L25.2,17.2 L22.8,18.2 L20.5,19 L19.2,20.7 L18.5,23.2 L17.3,25.4 L15.3,26.4 L12.6,26.2 L10.2,26.1 L8.3,27 L6.6,28.9 L4.6,30.4 L2.3,30.4 L0,29.1 L-2.1,27.9 L-4.2,27.9 L-6.6,28.9 L-9.1,29.4 L-11.1,28.4 L-12.6,26.2 L-14,24.2 L-15.9,23.3 L-18.5,23.2 L-20.9,22.5 L-22.4,20.7 L-22.8,18.2 L-23.1,15.8 L-24.5,14.1 L-26.7,12.9 L-28.6,11.2 L-29.1,9 L-28.4,6.5 L-27.7,4.2 L-28.2,2.1 L-29.6,0 L-30.7,-2.3 L-30.2,-4.5 L-28.4,-6.5 L-26.8,-8.3 L-26.3,-10.3 L-26.7,-12.9 L-26.6,-15.4 L-25.2,-17.2 L-22.8,-18.2 L-20.5,-19 L-19.2,-20.7 L-18.5,-23.2 L-17.3,-25.4 L-15.3,-26.4 L-12.6,-26.2 L-10.2,-26.1 L-8.3,-27 L-6.6,-28.9 L-4.6,-30.4 L-2.3,-30.4 L-0,-29.1 L2.1,-27.9 L4.2,-27.9 L6.6,-28.9 L9.1,-29.4 L11.1,-28.4 L12.6,-26.2 L14,-24.2 L15.9,-23.3 L18.5,-23.2 L20.9,-22.5 L22.4,-20.7 L22.8,-18.2 L23.1,-15.8 L24.5,-14.1 L26.7,-12.9 L28.6,-11.2 L29.1,-9 L28.4,-6.5 L27.7,-4.2 L28.2,-2.1Z" fill="none" stroke="#86a8c4" stroke-width="1.1" opacity=".9"/><path d="M23.8,0 L23.6,1.8 L22.4,3.4 L21.2,4.8 L20.9,6.4 L21.3,8.4 L21.4,10.3 L20.5,11.8 L18.7,12.7 L17,13.5 L16,14.9 L15.6,16.8 L14.8,18.6 L13.3,19.5 L11.3,19.6 L9.4,19.6 L8,20.3 L6.7,21.9 L5.3,23.2 L3.5,23.4 L1.7,22.5 L0,21.7 L-1.6,21.8 L-3.4,22.6 L-5.3,23.2 L-7,22.6 L-8.3,21 L-9.4,19.6 L-10.9,18.9 L-12.9,18.9 L-14.8,18.6 L-16.1,17.3 L-16.6,15.4 L-17,13.5 L-18.1,12.3 L-19.8,11.4 L-21.4,10.3 L-22,8.6 L-21.6,6.7 L-21.2,4.8 L-21.6,3.3 L-22.8,1.7 L-23.8,0 L-23.6,-1.8 L-22.4,-3.4 L-21.2,-4.8 L-20.9,-6.4 L-21.3,-8.4 L-21.4,-10.3 L-20.5,-11.8 L-18.7,-12.7 L-17,-13.5 L-16,-14.9 L-15.6,-16.8 L-14.8,-18.6 L-13.3,-19.5 L-11.3,-19.6 L-9.4,-19.6 L-8,-20.3 L-6.7,-21.9 L-5.3,-23.2 L-3.5,-23.4 L-1.7,-22.5 L-0,-21.7 L1.6,-21.8 L3.4,-22.6 L5.3,-23.2 L7,-22.6 L8.3,-21 L9.4,-19.6 L10.9,-18.9 L12.9,-18.9 L14.8,-18.6 L16.1,-17.3 L16.6,-15.4 L17,-13.5 L18.1,-12.3 L19.8,-11.4 L21.4,-10.3 L22,-8.6 L21.6,-6.7 L21.2,-4.8 L21.6,-3.3 L22.8,-1.7Z" fill="none" stroke="#86a8c4" stroke-width="1.1" opacity=".9"/><path d="M16.8,0 L16,1.2 L15.2,2.3 L15.1,3.4 L15.5,4.8 L15.7,6.2 L15.1,7.3 L13.9,8 L12.7,8.7 L12.1,9.6 L11.9,11 L11.5,12.4 L10.5,13.1 L9,13.3 L7.7,13.3 L6.7,13.9 L5.9,15.1 L5,16.1 L3.7,16.4 L2.4,15.9 L1.2,15.4 L0,15.5 L-1.2,16.1 L-2.5,16.7 L-3.7,16.4 L-4.7,15.3 L-5.6,14.3 L-6.7,13.9 L-8.1,14 L-9.5,13.9 L-10.5,13.1 L-10.9,11.8 L-11.3,10.5 L-12.1,9.6 L-13.4,9.1 L-14.6,8.4 L-15.1,7.3 L-15,5.9 L-14.7,4.5 L-15.1,3.4 L-16,2.4 L-16.8,1.3 L-16.8,0 L-16,-1.2 L-15.2,-2.3 L-15.1,-3.4 L-15.5,-4.8 L-15.7,-6.2 L-15.1,-7.3 L-13.9,-8 L-12.7,-8.7 L-12.1,-9.6 L-11.9,-11 L-11.5,-12.4 L-10.5,-13.1 L-9,-13.3 L-7.7,-13.3 L-6.7,-13.9 L-5.9,-15.1 L-5,-16.1 L-3.7,-16.4 L-2.4,-15.9 L-1.2,-15.4 L-0,-15.5 L1.2,-16.1 L2.5,-16.7 L3.7,-16.4 L4.7,-15.3 L5.6,-14.3 L6.7,-13.9 L8.1,-14 L9.5,-13.9 L10.5,-13.1 L10.9,-11.8 L11.3,-10.5 L12.1,-9.6 L13.4,-9.1 L14.6,-8.4 L15.1,-7.3 L15,-5.9 L14.7,-4.5 L15.1,-3.4 L16,-2.4 L16.8,-1.3Z" fill="none" stroke="#86a8c4" stroke-width="1.1" opacity=".9"/><path d="M9.5,0 L9.1,0.7 L9,1.4 L9.3,2.1 L9.5,2.9 L9.2,3.6 L8.5,4.1 L7.9,4.5 L7.5,5.1 L7.4,5.9 L7.3,6.7 L6.7,7.3 L5.9,7.4 L5.1,7.5 L4.6,7.9 L4.1,8.6 L3.6,9.2 L2.9,9.5 L2.1,9.3 L1.4,9 L0.7,9.1 L0,9.5 L-0.7,9.9 L-1.5,9.8 L-2.1,9.3 L-2.7,8.7 L-3.3,8.5 L-4.1,8.6 L-5,8.6 L-5.6,8.2 L-5.9,7.4 L-6.2,6.7 L-6.7,6.2 L-7.4,5.9 L-8.2,5.6 L-8.6,5 L-8.5,4.1 L-8.5,3.3 L-8.7,2.7 L-9.3,2.1 L-9.8,1.5 L-9.9,0.7 L-9.5,0 L-9.1,-0.7 L-9,-1.4 L-9.3,-2.1 L-9.5,-2.9 L-9.2,-3.6 L-8.5,-4.1 L-7.9,-4.5 L-7.5,-5.1 L-7.4,-5.9 L-7.3,-6.7 L-6.7,-7.3 L-5.9,-7.4 L-5.1,-7.5 L-4.6,-7.9 L-4.1,-8.6 L-3.6,-9.2 L-2.9,-9.5 L-2.1,-9.3 L-1.4,-9 L-0.7,-9.1 L-0,-9.5 L0.7,-9.9 L1.5,-9.8 L2.1,-9.3 L2.7,-8.7 L3.3,-8.5 L4.1,-8.6 L5,-8.6 L5.6,-8.2 L5.9,-7.4 L6.2,-6.7 L6.7,-6.2 L7.4,-5.9 L8.2,-5.6 L8.6,-5 L8.5,-4.1 L8.5,-3.3 L8.7,-2.7 L9.3,-2.1 L9.8,-1.5 L9.9,-0.7Z" fill="none" stroke="#86a8c4" stroke-width="1.1" opacity=".9"/></g><circle r="19" fill="#24347e" stroke="#f0c25a" stroke-width="1.2"/><text y="5" text-anchor="middle" font-family="'JetBrains Mono','SF Mono',SFMono-Regular,Consolas,Menlo,monospace" font-size="15" font-weight="700" fill="#f9efcf">C++</text></g><text x="121.5" y="210" text-anchor="middle" font-family="Georgia,'Iowan Old Style','Palatino Linotype','DejaVu Serif',serif" font-size="12.5" fill="#eef0fa">C/C++</text><g transform="translate(252.5,148)"><circle r="42" fill="url(#gl)"/><g class="a spinr"><path d="M37.7,0 L36.2,2.7 L34.2,5.2 L33.5,7.6 L34.1,10.5 L34.8,13.7 L33.9,16.3 L31.4,18.1 L28.6,19.5 L26.8,21.4 L26.2,24.3 L25.4,27.4 L23.5,29.5 L20.4,30 L17.3,30 L14.9,30.9 L13.1,33.3 L11,35.7 L8.4,36.7 L5.4,35.9 L2.6,34.5 L0,34.3 L-2.7,35.6 L-5.6,37 L-8.4,36.7 L-10.7,34.7 L-12.6,32.2 L-14.9,30.9 L-17.9,30.9 L-21.1,30.9 L-23.5,29.5 L-24.7,26.6 L-25.4,23.5 L-26.8,21.4 L-29.5,20.1 L-32.4,18.7 L-33.9,16.3 L-33.8,13.3 L-33.1,10.2 L-33.5,7.6 L-35.3,5.3 L-37.3,2.8 L-37.7,0 L-36.2,-2.7 L-34.2,-5.2 L-33.5,-7.6 L-34.1,-10.5 L-34.8,-13.7 L-33.9,-16.3 L-31.4,-18.1 L-28.6,-19.5 L-26.8,-21.4 L-26.2,-24.3 L-25.4,-27.4 L-23.5,-29.5 L-20.4,-30 L-17.3,-30 L-14.9,-30.9 L-13.1,-33.3 L-11,-35.7 L-8.4,-36.7 L-5.4,-35.9 L-2.6,-34.5 L-0,-34.3 L2.7,-35.6 L5.6,-37 L8.4,-36.7 L10.7,-34.7 L12.6,-32.2 L14.9,-30.9 L17.9,-30.9 L21.1,-30.9 L23.5,-29.5 L24.7,-26.6 L25.4,-23.5 L26.8,-21.4 L29.5,-20.1 L32.4,-18.7 L33.9,-16.3 L33.8,-13.3 L33.1,-10.2 L33.5,-7.6 L35.3,-5.3 L37.3,-2.8Z" fill="#34507f" stroke="#86a8c4" stroke-width="1.2"/><path d="M29.7,0 L28.2,2.1 L27.7,4.2 L28.4,6.5 L29.1,9 L28.6,11.2 L26.7,12.9 L24.5,14.1 L23.1,15.8 L22.7,18.1 L22.3,20.7 L20.9,22.6 L18.5,23.2 L15.9,23.4 L14,24.2 L12.6,26.2 L11.1,28.4 L9.1,29.4 L6.6,28.9 L4.2,28 L2.1,27.9 L0,29.1 L-2.3,30.4 L-4.6,30.4 L-6.6,28.9 L-8.3,27 L-10.2,26 L-12.6,26.2 L-15.2,26.4 L-17.3,25.4 L-18.5,23.2 L-19.2,20.7 L-20.5,19 L-22.7,18.1 L-25.2,17.2 L-26.6,15.4 L-26.7,12.9 L-26.3,10.3 L-26.7,8.2 L-28.4,6.5 L-30.1,4.5 L-30.7,2.3 L-29.7,0 L-28.2,-2.1 L-27.7,-4.2 L-28.4,-6.5 L-29.1,-9 L-28.6,-11.2 L-26.7,-12.9 L-24.5,-14.1 L-23.1,-15.8 L-22.7,-18.1 L-22.3,-20.7 L-20.9,-22.6 L-18.5,-23.2 L-15.9,-23.4 L-14,-24.2 L-12.6,-26.2 L-11.1,-28.4 L-9.1,-29.4 L-6.6,-28.9 L-4.2,-28 L-2.1,-27.9 L-0,-29.1 L2.3,-30.4 L4.6,-30.4 L6.6,-28.9 L8.3,-27 L10.2,-26 L12.6,-26.2 L15.2,-26.4 L17.3,-25.4 L18.5,-23.2 L19.2,-20.7 L20.5,-19 L22.7,-18.1 L25.2,-17.2 L26.6,-15.4 L26.7,-12.9 L26.3,-10.3 L26.7,-8.2 L28.4,-6.5 L30.1,-4.5 L30.7,-2.3Z" fill="none" stroke="#86a8c4" stroke-width="1.1" opacity=".9"/><path d="M21.9,0 L21.6,1.6 L22.2,3.3 L23,5.2 L22.8,7 L21.4,8.4 L19.8,9.5 L18.8,10.8 L18.6,12.7 L18.4,14.7 L17.5,16.2 L15.7,16.9 L13.7,17.1 L12.2,17.9 L11.2,19.5 L10.2,21.2 L8.7,22.2 L6.8,22 L4.9,21.4 L3.2,21.4 L1.7,22.4 L0,23.6 L-1.8,23.8 L-3.4,22.8 L-4.9,21.4 L-6.4,20.7 L-8.2,20.9 L-10.2,21.2 L-11.9,20.7 L-13,19 L-13.7,17.1 L-14.7,15.9 L-16.5,15.3 L-18.4,14.7 L-19.7,13.4 L-19.9,11.5 L-19.8,9.5 L-20.2,7.9 L-21.5,6.6 L-23,5.2 L-23.6,3.6 L-23,1.7 L-21.9,0 L-21.6,-1.6 L-22.2,-3.3 L-23,-5.2 L-22.8,-7 L-21.4,-8.4 L-19.8,-9.5 L-18.8,-10.8 L-18.6,-12.7 L-18.4,-14.7 L-17.5,-16.2 L-15.7,-16.9 L-13.7,-17.1 L-12.2,-17.9 L-11.2,-19.5 L-10.2,-21.2 L-8.7,-22.2 L-6.8,-22 L-4.9,-21.4 L-3.2,-21.4 L-1.7,-22.4 L-0,-23.6 L1.8,-23.8 L3.4,-22.8 L4.9,-21.4 L6.4,-20.7 L8.2,-20.9 L10.2,-21.2 L11.9,-20.7 L13,-19 L13.7,-17.1 L14.7,-15.9 L16.5,-15.3 L18.4,-14.7 L19.7,-13.4 L19.9,-11.5 L19.8,-9.5 L20.2,-7.9 L21.5,-6.6 L23,-5.2 L23.6,-3.6 L23,-1.7Z" fill="none" stroke="#86a8c4" stroke-width="1.1" opacity=".9"/><path d="M15.3,0 L15.9,1.2 L16.5,2.5 L16.5,3.8 L15.6,4.8 L14.5,5.7 L13.8,6.7 L13.8,7.9 L13.8,9.4 L13.2,10.5 L12,11.1 L10.6,11.4 L9.6,12 L9,13.1 L8.3,14.4 L7.3,15.2 L6,15.2 L4.6,14.9 L3.4,15 L2.4,15.7 L1.2,16.6 L0,16.9 L-1.2,16.3 L-2.3,15.4 L-3.4,15 L-4.7,15.2 L-6.1,15.5 L-7.3,15.2 L-8.2,14.2 L-8.8,12.9 L-9.6,12 L-10.8,11.7 L-12.2,11.3 L-13.2,10.5 L-13.5,9.2 L-13.5,7.8 L-13.8,6.7 L-14.8,5.8 L-15.9,4.9 L-16.5,3.8 L-16.2,2.4 L-15.5,1.2 L-15.3,0 L-15.9,-1.2 L-16.5,-2.5 L-16.5,-3.8 L-15.6,-4.8 L-14.5,-5.7 L-13.8,-6.7 L-13.8,-7.9 L-13.8,-9.4 L-13.2,-10.5 L-12,-11.1 L-10.6,-11.4 L-9.6,-12 L-9,-13.1 L-8.3,-14.4 L-7.3,-15.2 L-6,-15.2 L-4.6,-14.9 L-3.4,-15 L-2.4,-15.7 L-1.2,-16.6 L-0,-16.9 L1.2,-16.3 L2.3,-15.4 L3.4,-15 L4.7,-15.2 L6.1,-15.5 L7.3,-15.2 L8.2,-14.2 L8.8,-12.9 L9.6,-12 L10.8,-11.7 L12.2,-11.3 L13.2,-10.5 L13.5,-9.2 L13.5,-7.8 L13.8,-6.7 L14.8,-5.8 L15.9,-4.9 L16.5,-3.8 L16.2,-2.4 L15.5,-1.2Z" fill="none" stroke="#86a8c4" stroke-width="1.1" opacity=".9"/><path d="M9.3,0 L9.8,0.7 L9.9,1.5 L9.4,2.2 L8.8,2.7 L8.4,3.3 L8.4,4.1 L8.5,4.9 L8.2,5.6 L7.6,6 L6.7,6.3 L6.1,6.6 L5.8,7.3 L5.5,8.1 L5,8.6 L4.2,8.7 L3.4,8.6 L2.7,8.6 L2.1,9.1 L1.5,9.7 L0.7,9.9 L0,9.7 L-0.7,9.2 L-1.3,8.9 L-2.1,9.1 L-2.9,9.4 L-3.6,9.3 L-4.2,8.7 L-4.6,8 L-5.1,7.5 L-5.8,7.3 L-6.7,7.2 L-7.3,6.8 L-7.6,6 L-7.6,5.2 L-7.8,4.5 L-8.4,4.1 L-9.1,3.6 L-9.5,2.9 L-9.4,2.2 L-9.1,1.4 L-9,0.7 L-9.3,0 L-9.8,-0.7 L-9.9,-1.5 L-9.4,-2.2 L-8.8,-2.7 L-8.4,-3.3 L-8.4,-4.1 L-8.5,-4.9 L-8.2,-5.6 L-7.6,-6 L-6.7,-6.3 L-6.1,-6.6 L-5.8,-7.3 L-5.5,-8.1 L-5,-8.6 L-4.2,-8.7 L-3.4,-8.6 L-2.7,-8.6 L-2.1,-9.1 L-1.5,-9.7 L-0.7,-9.9 L-0,-9.7 L0.7,-9.2 L1.3,-8.9 L2.1,-9.1 L2.9,-9.4 L3.6,-9.3 L4.2,-8.7 L4.6,-8 L5.1,-7.5 L5.8,-7.3 L6.7,-7.2 L7.3,-6.8 L7.6,-6 L7.6,-5.2 L7.8,-4.5 L8.4,-4.1 L9.1,-3.6 L9.5,-2.9 L9.4,-2.2 L9.1,-1.4 L9,-0.7Z" fill="none" stroke="#86a8c4" stroke-width="1.1" opacity=".9"/></g><circle r="19" fill="#24347e" stroke="#f0c25a" stroke-width="1.2"/><text y="5" text-anchor="middle" font-family="'JetBrains Mono','SF Mono',SFMono-Regular,Consolas,Menlo,monospace" font-size="15" font-weight="700" fill="#f9efcf">Py</text></g><text x="252.5" y="210" text-anchor="middle" font-family="Georgia,'Iowan Old Style','Palatino Linotype','DejaVu Serif',serif" font-size="12.5" fill="#eef0fa">Python</text><g transform="translate(383.5,148)"><circle r="42" fill="url(#gl)"/><g class="a spin"><path d="M36.8,0 L37.7,2.8 L36.6,5.5 L34.3,7.8 L32.7,10.1 L32.6,12.8 L33.1,16 L32.7,18.9 L30.6,20.9 L27.5,22 L25.1,23.3 L23.8,25.6 L22.9,28.7 L21.3,31.2 L18.5,32.1 L15.3,31.7 L12.5,31.8 L10.3,33.4 L8.2,35.8 L5.6,37.4 L2.8,36.9 L0,35.2 L-2.6,34.1 L-5.2,34.6 L-8.2,35.8 L-11.1,36.1 L-13.5,34.5 L-15.3,31.7 L-17.1,29.6 L-19.7,28.9 L-22.9,28.7 L-25.7,27.7 L-27.1,25.2 L-27.5,22 L-28.3,19.3 L-30.3,17.5 L-33.1,16 L-35.2,13.8 L-35.4,10.9 L-34.3,7.8 L-33.8,5.1 L-34.9,2.6 L-36.8,0 L-37.7,-2.8 L-36.6,-5.5 L-34.3,-7.8 L-32.7,-10.1 L-32.6,-12.8 L-33.1,-16 L-32.7,-18.9 L-30.6,-20.9 L-27.5,-22 L-25.1,-23.3 L-23.8,-25.6 L-22.9,-28.7 L-21.3,-31.2 L-18.5,-32.1 L-15.3,-31.7 L-12.5,-31.8 L-10.3,-33.4 L-8.2,-35.8 L-5.6,-37.4 L-2.8,-36.9 L-0,-35.2 L2.6,-34.1 L5.2,-34.6 L8.2,-35.8 L11.1,-36.1 L13.5,-34.5 L15.3,-31.7 L17.1,-29.6 L19.7,-28.9 L22.9,-28.7 L25.7,-27.7 L27.1,-25.2 L27.5,-22 L28.3,-19.3 L30.3,-17.5 L33.1,-16 L35.2,-13.8 L35.4,-10.9 L34.3,-7.8 L33.8,-5.1 L34.9,-2.6Z" fill="#34507f" stroke="#86a8c4" stroke-width="1.2"/><path d="M30.8,0 L30.2,2.3 L28.5,4.3 L27.2,6.2 L27.2,8.4 L27.9,10.9 L27.8,13.4 L26.2,15.1 L23.8,16.2 L21.8,17.4 L20.9,19.4 L20.4,21.9 L19.2,24.1 L17.1,25 L14.4,25 L12.1,25.2 L10.4,26.5 L8.8,28.6 L6.9,30.1 L4.5,29.9 L2.2,28.7 L0,27.9 L-2.1,28.4 L-4.5,29.6 L-6.9,30.1 L-8.9,28.9 L-10.5,26.8 L-12.1,25.2 L-14.2,24.7 L-16.9,24.7 L-19.2,24.1 L-20.6,22.2 L-21.1,19.6 L-21.8,17.4 L-23.5,16 L-25.9,15 L-27.8,13.4 L-28.2,11.1 L-27.5,8.5 L-27.2,6.2 L-28.2,4.2 L-29.9,2.2 L-30.8,0 L-30.2,-2.3 L-28.5,-4.3 L-27.2,-6.2 L-27.2,-8.4 L-27.9,-10.9 L-27.8,-13.4 L-26.2,-15.1 L-23.8,-16.2 L-21.8,-17.4 L-20.9,-19.4 L-20.4,-21.9 L-19.2,-24.1 L-17.1,-25 L-14.4,-25 L-12.1,-25.2 L-10.4,-26.5 L-8.8,-28.6 L-6.9,-30.1 L-4.5,-29.9 L-2.2,-28.7 L-0,-27.9 L2.1,-28.4 L4.5,-29.6 L6.9,-30.1 L8.9,-28.9 L10.5,-26.8 L12.1,-25.2 L14.2,-24.7 L16.9,-24.7 L19.2,-24.1 L20.6,-22.2 L21.1,-19.6 L21.8,-17.4 L23.5,-16 L25.9,-15 L27.8,-13.4 L28.2,-11.1 L27.5,-8.5 L27.2,-6.2 L28.2,-4.2 L29.9,-2.2Z" fill="none" stroke="#86a8c4" stroke-width="1.1" opacity=".9"/><path d="M23.5,0 L22.3,1.7 L21.4,3.2 L21.5,4.9 L22.1,6.8 L22.2,8.7 L21.2,10.2 L19.4,11.2 L17.9,12.2 L17.2,13.7 L17,15.7 L16.2,17.5 L14.6,18.4 L12.6,18.5 L10.8,18.7 L9.6,19.8 L8.5,21.5 L7,22.8 L5.2,22.9 L3.3,22.1 L1.6,21.6 L0,22 L-1.7,23.1 L-3.6,23.6 L-5.2,22.9 L-6.6,21.4 L-7.9,20.1 L-9.6,19.8 L-11.6,20 L-13.4,19.7 L-14.6,18.4 L-15.2,16.4 L-15.9,14.7 L-17.2,13.7 L-19.1,13 L-20.7,11.9 L-21.2,10.2 L-20.8,8.2 L-20.7,6.4 L-21.5,4.9 L-22.9,3.4 L-23.8,1.8 L-23.5,0 L-22.3,-1.7 L-21.4,-3.2 L-21.5,-4.9 L-22.1,-6.8 L-22.2,-8.7 L-21.2,-10.2 L-19.4,-11.2 L-17.9,-12.2 L-17.2,-13.7 L-17,-15.7 L-16.2,-17.5 L-14.6,-18.4 L-12.6,-18.5 L-10.8,-18.7 L-9.6,-19.8 L-8.5,-21.5 L-7,-22.8 L-5.2,-22.9 L-3.3,-22.1 L-1.6,-21.6 L-0,-22 L1.7,-23.1 L3.6,-23.6 L5.2,-22.9 L6.6,-21.4 L7.9,-20.1 L9.6,-19.8 L11.6,-20 L13.4,-19.7 L14.6,-18.4 L15.2,-16.4 L15.9,-14.7 L17.2,-13.7 L19.1,-13 L20.7,-11.9 L21.2,-10.2 L20.8,-8.2 L20.7,-6.4 L21.5,-4.9 L22.9,-3.4 L23.8,-1.8Z" fill="none" stroke="#86a8c4" stroke-width="1.1" opacity=".9"/><path d="M15.9,0 L15.3,1.1 L15.4,2.3 L16,3.6 L16.2,5 L15.5,6.1 L14.3,6.9 L13.3,7.7 L12.9,8.8 L12.8,10.2 L12.4,11.5 L11.3,12.2 L9.9,12.4 L8.6,12.7 L7.8,13.5 L7.1,14.7 L6.2,15.7 L4.9,15.9 L3.5,15.5 L2.3,15.2 L1.2,15.5 L0,16.4 L-1.3,16.9 L-2.5,16.5 L-3.5,15.5 L-4.5,14.7 L-5.7,14.5 L-7.1,14.7 L-8.5,14.6 L-9.4,13.8 L-9.9,12.4 L-10.4,11.2 L-11.4,10.6 L-12.8,10.2 L-14,9.5 L-14.4,8.3 L-14.3,6.9 L-14.3,5.6 L-14.9,4.6 L-16,3.6 L-16.7,2.5 L-16.6,1.2 L-15.9,0 L-15.3,-1.1 L-15.4,-2.3 L-16,-3.6 L-16.2,-5 L-15.5,-6.1 L-14.3,-6.9 L-13.3,-7.7 L-12.9,-8.8 L-12.8,-10.2 L-12.4,-11.5 L-11.3,-12.2 L-9.9,-12.4 L-8.6,-12.7 L-7.8,-13.5 L-7.1,-14.7 L-6.2,-15.7 L-4.9,-15.9 L-3.5,-15.5 L-2.3,-15.2 L-1.2,-15.5 L-0,-16.4 L1.3,-16.9 L2.5,-16.5 L3.5,-15.5 L4.5,-14.7 L5.7,-14.5 L7.1,-14.7 L8.5,-14.6 L9.4,-13.8 L9.9,-12.4 L10.4,-11.2 L11.4,-10.6 L12.8,-10.2 L14,-9.5 L14.4,-8.3 L14.3,-6.9 L14.3,-5.6 L14.9,-4.6 L16,-3.6 L16.7,-2.5 L16.6,-1.2Z" fill="none" stroke="#86a8c4" stroke-width="1.1" opacity=".9"/><path d="M9,0 L9.1,0.7 L9.5,1.4 L9.7,2.2 L9.4,2.9 L8.7,3.4 L8.2,3.9 L7.9,4.6 L8,5.4 L7.8,6.2 L7.2,6.7 L6.4,6.9 L5.6,7.1 L5.2,7.6 L4.8,8.3 L4.3,9 L3.6,9.2 L2.8,9 L2,8.8 L1.4,9.1 L0.7,9.6 L0,10 L-0.7,9.8 L-1.4,9.3 L-2,8.8 L-2.7,8.8 L-3.5,9 L-4.3,9 L-4.9,8.5 L-5.3,7.8 L-5.6,7.1 L-6.2,6.7 L-7.1,6.5 L-7.8,6.2 L-8.1,5.5 L-8.1,4.7 L-8.2,3.9 L-8.5,3.3 L-9.2,2.8 L-9.7,2.2 L-9.7,1.5 L-9.4,0.7 L-9,0 L-9.1,-0.7 L-9.5,-1.4 L-9.7,-2.2 L-9.4,-2.9 L-8.7,-3.4 L-8.2,-3.9 L-7.9,-4.6 L-8,-5.4 L-7.8,-6.2 L-7.2,-6.7 L-6.4,-6.9 L-5.6,-7.1 L-5.2,-7.6 L-4.8,-8.3 L-4.3,-9 L-3.6,-9.2 L-2.8,-9 L-2,-8.8 L-1.4,-9.1 L-0.7,-9.6 L-0,-10 L0.7,-9.8 L1.4,-9.3 L2,-8.8 L2.7,-8.8 L3.5,-9 L4.3,-9 L4.9,-8.5 L5.3,-7.8 L5.6,-7.1 L6.2,-6.7 L7.1,-6.5 L7.8,-6.2 L8.1,-5.5 L8.1,-4.7 L8.2,-3.9 L8.5,-3.3 L9.2,-2.8 L9.7,-2.2 L9.7,-1.5 L9.4,-0.7Z" fill="none" stroke="#86a8c4" stroke-width="1.1" opacity=".9"/></g><circle r="19" fill="#24347e" stroke="#f0c25a" stroke-width="1.2"/><text y="5" text-anchor="middle" font-family="'JetBrains Mono','SF Mono',SFMono-Regular,Consolas,Menlo,monospace" font-size="15" font-weight="700" fill="#f9efcf">JS</text></g><text x="383.5" y="210" text-anchor="middle" font-family="Georgia,'Iowan Old Style','Palatino Linotype','DejaVu Serif',serif" font-size="12.5" fill="#eef0fa">JavaScript</text><g transform="translate(514.5,148)"><circle r="42" fill="url(#gl)"/><g class="a spinr"><path d="M37.8,0 L36.6,2.7 L34.5,5.2 L33.4,7.6 L33.7,10.4 L34.5,13.5 L34,16.4 L31.8,18.4 L28.9,19.7 L26.7,21.3 L25.9,24 L25.2,27.2 L23.6,29.5 L20.7,30.3 L17.5,30.3 L14.8,30.8 L12.9,32.8 L10.9,35.4 L8.4,36.8 L5.5,36.3 L2.6,34.8 L0,34.2 L-2.6,35.2 L-5.5,36.6 L-8.4,36.8 L-10.8,35.1 L-12.8,32.5 L-14.8,30.8 L-17.6,30.5 L-20.9,30.6 L-23.6,29.5 L-25,26.9 L-25.6,23.8 L-26.7,21.3 L-29.1,19.9 L-32.1,18.5 L-34,16.4 L-34.2,13.4 L-33.4,10.3 L-33.4,7.6 L-34.9,5.3 L-37,2.8 L-37.8,0 L-36.6,-2.7 L-34.5,-5.2 L-33.4,-7.6 L-33.7,-10.4 L-34.5,-13.5 L-34,-16.4 L-31.8,-18.4 L-28.9,-19.7 L-26.7,-21.3 L-25.9,-24 L-25.2,-27.2 L-23.6,-29.5 L-20.7,-30.3 L-17.5,-30.3 L-14.8,-30.8 L-12.9,-32.8 L-10.9,-35.4 L-8.4,-36.8 L-5.5,-36.3 L-2.6,-34.8 L-0,-34.2 L2.6,-35.2 L5.5,-36.6 L8.4,-36.8 L10.8,-35.1 L12.8,-32.5 L14.8,-30.8 L17.6,-30.5 L20.9,-30.6 L23.6,-29.5 L25,-26.9 L25.6,-23.8 L26.7,-21.3 L29.1,-19.9 L32.1,-18.5 L34,-16.4 L34.2,-13.4 L33.4,-10.3 L33.4,-7.6 L34.9,-5.3 L37,-2.8Z" fill="#34507f" stroke="#86a8c4" stroke-width="1.2"/><path d="M30,0 L28.5,2.1 L27.6,4.2 L28,6.4 L28.8,8.9 L28.7,11.3 L27.1,13 L24.7,14.3 L23.1,15.7 L22.5,17.9 L22.1,20.5 L21,22.6 L18.7,23.5 L16.1,23.6 L14,24.2 L12.5,25.9 L11,28.1 L9.1,29.5 L6.7,29.3 L4.3,28.2 L2.1,27.8 L0,28.7 L-2.3,30.1 L-4.6,30.5 L-6.7,29.3 L-8.4,27.3 L-10.2,26 L-12.5,25.9 L-15.1,26.1 L-17.4,25.5 L-18.7,23.5 L-19.4,20.9 L-20.5,19 L-22.5,17.9 L-24.9,17 L-26.7,15.4 L-27.1,13 L-26.6,10.4 L-26.7,8.2 L-28,6.4 L-29.8,4.5 L-30.8,2.3 L-30,0 L-28.5,-2.1 L-27.6,-4.2 L-28,-6.4 L-28.8,-8.9 L-28.7,-11.3 L-27.1,-13 L-24.7,-14.3 L-23.1,-15.7 L-22.5,-17.9 L-22.1,-20.5 L-21,-22.6 L-18.7,-23.5 L-16.1,-23.6 L-14,-24.2 L-12.5,-25.9 L-11,-28.1 L-9.1,-29.5 L-6.7,-29.3 L-4.3,-28.2 L-2.1,-27.8 L-0,-28.7 L2.3,-30.1 L4.6,-30.5 L6.7,-29.3 L8.4,-27.3 L10.2,-26 L12.5,-25.9 L15.1,-26.1 L17.4,-25.5 L18.7,-23.5 L19.4,-20.9 L20.5,-19 L22.5,-17.9 L24.9,-17 L26.7,-15.4 L27.1,-13 L26.6,-10.4 L26.7,-8.2 L28,-6.4 L29.8,-4.5 L30.8,-2.3Z" fill="none" stroke="#86a8c4" stroke-width="1.1" opacity=".9"/><path d="M22.2,0 L21.6,1.6 L21.9,3.3 L22.7,5.2 L22.8,7 L21.7,8.5 L20,9.6 L18.7,10.8 L18.3,12.5 L18.2,14.5 L17.5,16.2 L15.9,17.1 L13.8,17.3 L12.2,17.9 L11.1,19.2 L10.1,21 L8.7,22.2 L6.9,22.3 L4.9,21.6 L3.2,21.4 L1.7,22.1 L0,23.3 L-1.8,23.8 L-3.5,23 L-4.9,21.6 L-6.4,20.7 L-8.1,20.7 L-10.1,21 L-11.9,20.7 L-13.1,19.3 L-13.8,17.3 L-14.7,15.8 L-16.3,15.1 L-18.2,14.5 L-19.7,13.5 L-20.2,11.7 L-20,9.6 L-20.1,7.9 L-21.2,6.5 L-22.7,5.2 L-23.6,3.6 L-23.2,1.7 L-22.2,0 L-21.6,-1.6 L-21.9,-3.3 L-22.7,-5.2 L-22.8,-7 L-21.7,-8.5 L-20,-9.6 L-18.7,-10.8 L-18.3,-12.5 L-18.2,-14.5 L-17.5,-16.2 L-15.9,-17.1 L-13.8,-17.3 L-12.2,-17.9 L-11.1,-19.2 L-10.1,-21 L-8.7,-22.2 L-6.9,-22.3 L-4.9,-21.6 L-3.2,-21.4 L-1.7,-22.1 L-0,-23.3 L1.8,-23.8 L3.5,-23 L4.9,-21.6 L6.4,-20.7 L8.1,-20.7 L10.1,-21 L11.9,-20.7 L13.1,-19.3 L13.8,-17.3 L14.7,-15.8 L16.3,-15.1 L18.2,-14.5 L19.7,-13.5 L20.2,-11.7 L20,-9.6 L20.1,-7.9 L21.2,-6.5 L22.7,-5.2 L23.6,-3.6 L23.2,-1.7Z" fill="none" stroke="#86a8c4" stroke-width="1.1" opacity=".9"/><path d="M15.3,0 L15.7,1.2 L16.3,2.5 L16.5,3.8 L15.8,4.9 L14.7,5.8 L13.8,6.6 L13.6,7.9 L13.6,9.3 L13.2,10.6 L12.1,11.3 L10.7,11.5 L9.6,12 L8.8,13 L8.3,14.3 L7.3,15.3 L6,15.4 L4.6,15 L3.4,14.9 L2.3,15.5 L1.2,16.5 L0,16.9 L-1.2,16.5 L-2.3,15.6 L-3.4,14.9 L-4.6,15 L-6,15.4 L-7.3,15.3 L-8.3,14.3 L-8.9,13 L-9.6,12 L-10.7,11.5 L-12.1,11.2 L-13.2,10.6 L-13.7,9.3 L-13.6,7.9 L-13.8,6.6 L-14.6,5.7 L-15.8,4.9 L-16.5,3.8 L-16.4,2.5 L-15.7,1.2 L-15.3,0 L-15.7,-1.2 L-16.3,-2.5 L-16.5,-3.8 L-15.8,-4.9 L-14.7,-5.8 L-13.8,-6.6 L-13.6,-7.9 L-13.6,-9.3 L-13.2,-10.6 L-12.1,-11.3 L-10.7,-11.5 L-9.6,-12 L-8.8,-13 L-8.3,-14.3 L-7.3,-15.3 L-6,-15.4 L-4.6,-15 L-3.4,-14.9 L-2.3,-15.5 L-1.2,-16.5 L-0,-16.9 L1.2,-16.5 L2.3,-15.6 L3.4,-14.9 L4.6,-15 L6,-15.4 L7.3,-15.3 L8.3,-14.3 L8.9,-13 L9.6,-12 L10.7,-11.5 L12.1,-11.2 L13.2,-10.6 L13.7,-9.3 L13.6,-7.9 L13.8,-6.6 L14.6,-5.7 L15.8,-4.9 L16.5,-3.8 L16.4,-2.5 L15.7,-1.2Z" fill="none" stroke="#86a8c4" stroke-width="1.1" opacity=".9"/><path d="M9.2,0 L9.7,0.7 L9.9,1.5 L9.5,2.2 L8.9,2.7 L8.4,3.3 L8.3,4 L8.4,4.9 L8.2,5.6 L7.6,6.1 L6.8,6.3 L6.1,6.6 L5.8,7.2 L5.5,8 L5,8.6 L4.2,8.8 L3.4,8.7 L2.7,8.6 L2.1,9 L1.4,9.6 L0.7,9.9 L0,9.8 L-0.7,9.3 L-1.3,8.9 L-2.1,9 L-2.9,9.3 L-3.6,9.3 L-4.2,8.8 L-4.7,8.1 L-5.1,7.5 L-5.8,7.2 L-6.6,7.1 L-7.3,6.8 L-7.6,6.1 L-7.7,5.2 L-7.8,4.5 L-8.3,4 L-9,3.5 L-9.5,2.9 L-9.5,2.2 L-9.2,1.4 L-9,0.7 L-9.2,0 L-9.7,-0.7 L-9.9,-1.5 L-9.5,-2.2 L-8.9,-2.7 L-8.4,-3.3 L-8.3,-4 L-8.4,-4.9 L-8.2,-5.6 L-7.6,-6.1 L-6.8,-6.3 L-6.1,-6.6 L-5.8,-7.2 L-5.5,-8 L-5,-8.6 L-4.2,-8.8 L-3.4,-8.7 L-2.7,-8.6 L-2.1,-9 L-1.4,-9.6 L-0.7,-9.9 L-0,-9.8 L0.7,-9.3 L1.3,-8.9 L2.1,-9 L2.9,-9.3 L3.6,-9.3 L4.2,-8.8 L4.7,-8.1 L5.1,-7.5 L5.8,-7.2 L6.6,-7.1 L7.3,-6.8 L7.6,-6.1 L7.7,-5.2 L7.8,-4.5 L8.3,-4 L9,-3.5 L9.5,-2.9 L9.5,-2.2 L9.2,-1.4 L9,-0.7Z" fill="none" stroke="#86a8c4" stroke-width="1.1" opacity=".9"/></g><circle r="19" fill="#24347e" stroke="#f0c25a" stroke-width="1.2"/><text y="5" text-anchor="middle" font-family="'JetBrains Mono','SF Mono',SFMono-Regular,Consolas,Menlo,monospace" font-size="15" font-weight="700" fill="#f9efcf">TS</text></g><text x="514.5" y="210" text-anchor="middle" font-family="Georgia,'Iowan Old Style','Palatino Linotype','DejaVu Serif',serif" font-size="12.5" fill="#eef0fa">TypeScript</text><g transform="translate(645.5,148)"><circle r="42" fill="url(#gl)"/><g class="a spin"><path d="M34.4,0 L35.8,2.7 L37.1,5.6 L36.7,8.4 L34.5,10.7 L32.1,12.6 L31,14.9 L31.1,17.9 L31,21.1 L29.4,23.5 L26.5,24.6 L23.5,25.3 L21.4,26.9 L20.2,29.6 L18.7,32.5 L16.3,33.9 L13.2,33.6 L10.2,33 L7.6,33.5 L5.3,35.5 L2.8,37.4 L0,37.6 L-2.7,36 L-5.1,34.1 L-7.6,33.5 L-10.6,34.3 L-13.7,34.9 L-16.3,33.9 L-18.1,31.3 L-19.4,28.5 L-21.4,26.9 L-24.4,26.3 L-27.5,25.5 L-29.4,23.5 L-29.9,20.4 L-29.9,17.3 L-31,14.9 L-33.4,13.1 L-35.8,11 L-36.7,8.4 L-35.7,5.4 L-34.4,2.6 L-34.4,0 L-35.8,-2.7 L-37.1,-5.6 L-36.7,-8.4 L-34.5,-10.7 L-32.1,-12.6 L-31,-14.9 L-31.1,-17.9 L-31,-21.1 L-29.4,-23.5 L-26.5,-24.6 L-23.5,-25.3 L-21.4,-26.9 L-20.2,-29.6 L-18.7,-32.5 L-16.3,-33.9 L-13.2,-33.6 L-10.2,-33 L-7.6,-33.5 L-5.3,-35.5 L-2.8,-37.4 L-0,-37.6 L2.7,-36 L5.1,-34.1 L7.6,-33.5 L10.6,-34.3 L13.7,-34.9 L16.3,-33.9 L18.1,-31.3 L19.4,-28.5 L21.4,-26.9 L24.4,-26.3 L27.5,-25.5 L29.4,-23.5 L29.9,-20.4 L29.9,-17.3 L31,-14.9 L33.4,-13.1 L35.8,-11 L36.7,-8.4 L35.7,-5.4 L34.4,-2.6Z" fill="#34507f" stroke="#86a8c4" stroke-width="1.2"/><path d="M29.2,0 L30.5,2.3 L30.4,4.6 L28.8,6.6 L27,8.3 L26.1,10.2 L26.3,12.7 L26.5,15.3 L25.4,17.3 L23.1,18.4 L20.7,19.2 L19.1,20.5 L18.2,22.8 L17.2,25.2 L15.4,26.6 L12.8,26.6 L10.3,26.3 L8.3,26.8 L6.5,28.5 L4.6,30.2 L2.3,30.6 L0,29.6 L-2.1,28.1 L-4.2,27.7 L-6.5,28.5 L-9,29.2 L-11.2,28.6 L-12.8,26.6 L-14.1,24.4 L-15.8,23.2 L-18.2,22.8 L-20.8,22.4 L-22.5,20.9 L-23.1,18.4 L-23.3,15.9 L-24.3,14 L-26.3,12.7 L-28.4,11.2 L-29.4,9.1 L-28.8,6.6 L-27.9,4.2 L-27.9,2.1 L-29.2,0 L-30.5,-2.3 L-30.4,-4.6 L-28.8,-6.6 L-27,-8.3 L-26.1,-10.2 L-26.3,-12.7 L-26.5,-15.3 L-25.4,-17.3 L-23.1,-18.4 L-20.7,-19.2 L-19.1,-20.5 L-18.2,-22.8 L-17.2,-25.2 L-15.4,-26.6 L-12.8,-26.6 L-10.3,-26.3 L-8.3,-26.8 L-6.5,-28.5 L-4.6,-30.2 L-2.3,-30.6 L-0,-29.6 L2.1,-28.1 L4.2,-27.7 L6.5,-28.5 L9,-29.2 L11.2,-28.6 L12.8,-26.6 L14.1,-24.4 L15.8,-23.2 L18.2,-22.8 L20.8,-22.4 L22.5,-20.9 L23.1,-18.4 L23.3,-15.9 L24.3,-14 L26.3,-12.7 L28.4,-11.2 L29.4,-9.1 L28.8,-6.6 L27.9,-4.2 L27.9,-2.1Z" fill="none" stroke="#86a8c4" stroke-width="1.1" opacity=".9"/><path d="M23.6,0 L23.8,1.8 L22.7,3.4 L21.3,4.9 L20.7,6.4 L21,8.2 L21.3,10.3 L20.6,11.9 L19,12.9 L17.1,13.6 L15.9,14.7 L15.3,16.5 L14.7,18.5 L13.4,19.7 L11.5,19.9 L9.5,19.7 L7.9,20.2 L6.6,21.6 L5.3,23 L3.6,23.6 L1.7,22.9 L0,21.9 L-1.6,21.6 L-3.4,22.3 L-5.3,23 L-7,22.8 L-8.4,21.4 L-9.5,19.7 L-10.8,18.8 L-12.7,18.6 L-14.7,18.5 L-16.2,17.5 L-16.8,15.6 L-17.1,13.6 L-17.9,12.2 L-19.5,11.3 L-21.3,10.3 L-22.2,8.7 L-21.9,6.8 L-21.3,4.9 L-21.4,3.2 L-22.5,1.7 L-23.6,0 L-23.8,-1.8 L-22.7,-3.4 L-21.3,-4.9 L-20.7,-6.4 L-21,-8.2 L-21.3,-10.3 L-20.6,-11.9 L-19,-12.9 L-17.1,-13.6 L-15.9,-14.7 L-15.3,-16.5 L-14.7,-18.5 L-13.4,-19.7 L-11.5,-19.9 L-9.5,-19.7 L-7.9,-20.2 L-6.6,-21.6 L-5.3,-23 L-3.6,-23.6 L-1.7,-22.9 L-0,-21.9 L1.6,-21.6 L3.4,-22.3 L5.3,-23 L7,-22.8 L8.4,-21.4 L9.5,-19.7 L10.8,-18.8 L12.7,-18.6 L14.7,-18.5 L16.2,-17.5 L16.8,-15.6 L17.1,-13.6 L17.9,-12.2 L19.5,-11.3 L21.3,-10.3 L22.2,-8.7 L21.9,-6.8 L21.3,-4.9 L21.4,-3.2 L22.5,-1.7Z" fill="none" stroke="#86a8c4" stroke-width="1.1" opacity=".9"/><path d="M16.9,0 L16.3,1.2 L15.4,2.3 L15,3.4 L15.2,4.7 L15.6,6.1 L15.2,7.3 L14.1,8.2 L12.8,8.8 L12,9.6 L11.7,10.9 L11.4,12.3 L10.5,13.2 L9.2,13.5 L7.8,13.5 L6.7,13.8 L5.8,14.8 L4.9,16 L3.8,16.5 L2.4,16.1 L1.2,15.5 L0,15.4 L-1.2,15.9 L-2.5,16.5 L-3.8,16.5 L-4.8,15.6 L-5.7,14.5 L-6.7,13.8 L-8,13.8 L-9.4,13.8 L-10.5,13.2 L-11.1,12 L-11.4,10.6 L-12,9.6 L-13.2,9 L-14.5,8.4 L-15.2,7.3 L-15.2,6 L-14.8,4.6 L-15,3.4 L-15.8,2.4 L-16.7,1.2 L-16.9,0 L-16.3,-1.2 L-15.4,-2.3 L-15,-3.4 L-15.2,-4.7 L-15.6,-6.1 L-15.2,-7.3 L-14.1,-8.2 L-12.8,-8.8 L-12,-9.6 L-11.7,-10.9 L-11.4,-12.3 L-10.5,-13.2 L-9.2,-13.5 L-7.8,-13.5 L-6.7,-13.8 L-5.8,-14.8 L-4.9,-16 L-3.8,-16.5 L-2.4,-16.1 L-1.2,-15.5 L-0,-15.4 L1.2,-15.9 L2.5,-16.5 L3.8,-16.5 L4.8,-15.6 L5.7,-14.5 L6.7,-13.8 L8,-13.8 L9.4,-13.8 L10.5,-13.2 L11.1,-12 L11.4,-10.6 L12,-9.6 L13.2,-9 L14.5,-8.4 L15.2,-7.3 L15.2,-6 L14.8,-4.6 L15,-3.4 L15.8,-2.4 L16.7,-1.2Z" fill="none" stroke="#86a8c4" stroke-width="1.1" opacity=".9"/><path d="M9.6,0 L9.1,0.7 L8.9,1.3 L9.1,2.1 L9.4,2.9 L9.3,3.6 L8.7,4.2 L7.9,4.6 L7.5,5.1 L7.3,5.8 L7.2,6.7 L6.8,7.3 L6,7.5 L5.2,7.6 L4.5,7.8 L4.1,8.5 L3.6,9.2 L2.9,9.5 L2.1,9.4 L1.4,9.1 L0.7,9 L0,9.4 L-0.7,9.8 L-1.5,9.9 L-2.1,9.4 L-2.7,8.8 L-3.3,8.4 L-4.1,8.5 L-4.9,8.5 L-5.6,8.2 L-6,7.5 L-6.2,6.7 L-6.6,6.2 L-7.3,5.8 L-8.1,5.5 L-8.6,5 L-8.7,4.2 L-8.5,3.4 L-8.6,2.7 L-9.1,2.1 L-9.7,1.5 L-9.9,0.7 L-9.6,0 L-9.1,-0.7 L-8.9,-1.3 L-9.1,-2.1 L-9.4,-2.9 L-9.3,-3.6 L-8.7,-4.2 L-7.9,-4.6 L-7.5,-5.1 L-7.3,-5.8 L-7.2,-6.7 L-6.8,-7.3 L-6,-7.5 L-5.2,-7.6 L-4.5,-7.8 L-4.1,-8.5 L-3.6,-9.2 L-2.9,-9.5 L-2.1,-9.4 L-1.4,-9.1 L-0.7,-9 L-0,-9.4 L0.7,-9.8 L1.5,-9.9 L2.1,-9.4 L2.7,-8.8 L3.3,-8.4 L4.1,-8.5 L4.9,-8.5 L5.6,-8.2 L6,-7.5 L6.2,-6.7 L6.6,-6.2 L7.3,-5.8 L8.1,-5.5 L8.6,-5 L8.7,-4.2 L8.5,-3.4 L8.6,-2.7 L9.1,-2.1 L9.7,-1.5 L9.9,-0.7Z" fill="none" stroke="#86a8c4" stroke-width="1.1" opacity=".9"/></g><circle r="19" fill="#24347e" stroke="#f0c25a" stroke-width="1.2"/><text y="5" text-anchor="middle" font-family="'JetBrains Mono','SF Mono',SFMono-Regular,Consolas,Menlo,monospace" font-size="15" font-weight="700" fill="#f9efcf">Rx</text></g><text x="645.5" y="210" text-anchor="middle" font-family="Georgia,'Iowan Old Style','Palatino Linotype','DejaVu Serif',serif" font-size="12.5" fill="#eef0fa">React</text><g transform="translate(776.5,148)"><circle r="42" fill="url(#gl)"/><g class="a spinr"><path d="M36.8,0 L34.9,2.6 L33.8,5.1 L34.4,7.8 L35.4,10.9 L35.2,13.8 L33.1,16 L30.3,17.5 L28.3,19.3 L27.6,22 L27.1,25.2 L25.7,27.7 L22.9,28.7 L19.7,28.9 L17.1,29.6 L15.3,31.7 L13.5,34.5 L11.1,36.1 L8.2,35.8 L5.2,34.6 L2.6,34.1 L0,35.2 L-2.8,36.9 L-5.6,37.4 L-8.2,35.8 L-10.3,33.4 L-12.5,31.8 L-15.3,31.7 L-18.5,32.1 L-21.3,31.2 L-22.9,28.7 L-23.8,25.6 L-25.1,23.3 L-27.6,22 L-30.6,20.9 L-32.7,18.9 L-33.1,16 L-32.6,12.8 L-32.7,10.1 L-34.4,7.8 L-36.6,5.5 L-37.7,2.8 L-36.8,0 L-34.9,-2.6 L-33.8,-5.1 L-34.4,-7.8 L-35.4,-10.9 L-35.2,-13.8 L-33.1,-16 L-30.3,-17.5 L-28.3,-19.3 L-27.6,-22 L-27.1,-25.2 L-25.7,-27.7 L-22.9,-28.7 L-19.7,-28.9 L-17.1,-29.6 L-15.3,-31.7 L-13.5,-34.5 L-11.1,-36.1 L-8.2,-35.8 L-5.2,-34.6 L-2.6,-34.1 L-0,-35.2 L2.8,-36.9 L5.6,-37.4 L8.2,-35.8 L10.3,-33.4 L12.5,-31.8 L15.3,-31.7 L18.5,-32.1 L21.3,-31.2 L22.9,-28.7 L23.8,-25.6 L25.1,-23.3 L27.6,-22 L30.6,-20.9 L32.7,-18.9 L33.1,-16 L32.6,-12.8 L32.7,-10.1 L34.4,-7.8 L36.6,-5.5 L37.7,-2.8Z" fill="#34507f" stroke="#86a8c4" stroke-width="1.2"/><path d="M28.6,0 L27.8,2.1 L28.4,4.3 L29.4,6.7 L29.5,9.1 L28,11 L25.8,12.4 L24.2,14 L23.7,16.2 L23.6,18.8 L22.6,21 L20.4,22 L17.8,22.4 L15.7,23.1 L14.3,24.8 L13.1,27.2 L11.3,28.7 L8.9,28.7 L6.4,27.9 L4.2,27.6 L2.1,28.6 L0,30.2 L-2.3,30.8 L-4.5,29.7 L-6.4,27.9 L-8.2,26.7 L-10.5,26.7 L-13.1,27.2 L-15.4,26.7 L-16.9,24.8 L-17.8,22.4 L-19,20.5 L-21,19.5 L-23.6,18.8 L-25.5,17.4 L-26,15 L-25.8,12.4 L-26,10.2 L-27.4,8.5 L-29.4,6.7 L-30.5,4.6 L-30,2.2 L-28.6,0 L-27.8,-2.1 L-28.4,-4.3 L-29.4,-6.7 L-29.5,-9.1 L-28,-11 L-25.8,-12.4 L-24.2,-14 L-23.7,-16.2 L-23.6,-18.8 L-22.6,-21 L-20.4,-22 L-17.8,-22.4 L-15.7,-23.1 L-14.3,-24.8 L-13.1,-27.2 L-11.3,-28.7 L-8.9,-28.7 L-6.4,-27.9 L-4.2,-27.6 L-2.1,-28.6 L-0,-30.2 L2.3,-30.8 L4.5,-29.7 L6.4,-27.9 L8.2,-26.7 L10.5,-26.7 L13.1,-27.2 L15.4,-26.7 L16.9,-24.8 L17.8,-22.4 L19,-20.5 L21,-19.5 L23.6,-18.8 L25.5,-17.4 L26,-15 L25.8,-12.4 L26,-10.2 L27.4,-8.5 L29.4,-6.7 L30.5,-4.6 L30,-2.2Z" fill="none" stroke="#86a8c4" stroke-width="1.1" opacity=".9"/><path d="M21.6,0 L22.1,1.7 L23.1,3.5 L23.3,5.3 L22.3,6.9 L20.7,8.1 L19.5,9.4 L19.2,11.1 L19.3,13.1 L18.7,14.9 L17.1,15.9 L15.1,16.3 L13.5,16.9 L12.5,18.3 L11.7,20.2 L10.4,21.5 L8.5,21.7 L6.5,21.2 L4.8,21.1 L3.3,21.9 L1.7,23.2 L0,23.9 L-1.7,23.3 L-3.3,21.9 L-4.8,21.1 L-6.5,21.2 L-8.5,21.7 L-10.4,21.5 L-11.7,20.2 L-12.5,18.3 L-13.5,16.9 L-15.1,16.3 L-17.1,15.9 L-18.7,14.9 L-19.3,13.1 L-19.2,11.1 L-19.5,9.4 L-20.6,8.1 L-22.3,6.9 L-23.3,5.3 L-23.1,3.5 L-22.1,1.7 L-21.6,0 L-22.1,-1.7 L-23.1,-3.5 L-23.3,-5.3 L-22.3,-6.9 L-20.7,-8.1 L-19.5,-9.4 L-19.2,-11.1 L-19.3,-13.1 L-18.7,-14.9 L-17.1,-15.9 L-15.1,-16.3 L-13.5,-16.9 L-12.5,-18.3 L-11.7,-20.2 L-10.4,-21.5 L-8.5,-21.7 L-6.5,-21.2 L-4.8,-21.1 L-3.3,-21.9 L-1.7,-23.2 L-0,-23.9 L1.7,-23.3 L3.3,-21.9 L4.8,-21.1 L6.5,-21.2 L8.5,-21.7 L10.4,-21.5 L11.7,-20.2 L12.5,-18.3 L13.5,-16.9 L15.1,-16.3 L17.1,-15.9 L18.7,-14.9 L19.3,-13.1 L19.2,-11.1 L19.5,-9.4 L20.6,-8.1 L22.3,-6.9 L23.3,-5.3 L23.1,-3.5 L22.1,-1.7Z" fill="none" stroke="#86a8c4" stroke-width="1.1" opacity=".9"/><path d="M15.7,0 L16.4,1.2 L16.7,2.5 L16.2,3.7 L15.1,4.6 L14.3,5.6 L14.1,6.8 L14.3,8.2 L14,9.5 L13,10.3 L11.6,10.7 L10.4,11.2 L9.8,12.3 L9.3,13.6 L8.5,14.7 L7.2,14.9 L5.8,14.7 L4.5,14.6 L3.5,15.3 L2.5,16.3 L1.3,16.9 L0,16.6 L-1.2,15.7 L-2.3,15.2 L-3.5,15.3 L-4.9,15.8 L-6.2,15.8 L-7.2,14.9 L-7.9,13.7 L-8.6,12.7 L-9.8,12.3 L-11.2,12.1 L-12.4,11.5 L-13,10.3 L-13,8.9 L-13.3,7.7 L-14.1,6.8 L-15.4,6 L-16.2,5 L-16.2,3.7 L-15.6,2.3 L-15.3,1.1 L-15.7,0 L-16.4,-1.2 L-16.7,-2.5 L-16.2,-3.7 L-15.1,-4.6 L-14.3,-5.6 L-14.1,-6.8 L-14.3,-8.2 L-14,-9.5 L-13,-10.3 L-11.6,-10.7 L-10.4,-11.2 L-9.8,-12.3 L-9.3,-13.6 L-8.5,-14.7 L-7.2,-14.9 L-5.8,-14.7 L-4.5,-14.6 L-3.5,-15.3 L-2.5,-16.3 L-1.3,-16.9 L-0,-16.6 L1.2,-15.7 L2.3,-15.2 L3.5,-15.3 L4.9,-15.8 L6.2,-15.8 L7.2,-14.9 L7.9,-13.7 L8.6,-12.7 L9.8,-12.3 L11.2,-12.1 L12.4,-11.5 L13,-10.3 L13,-8.9 L13.3,-7.7 L14.1,-6.8 L15.4,-6 L16.2,-5 L16.2,-3.7 L15.6,-2.3 L15.3,-1.1Z" fill="none" stroke="#86a8c4" stroke-width="1.1" opacity=".9"/><path d="M9.7,0 L9.9,0.7 L9.7,1.5 L9.1,2.1 L8.6,2.7 L8.6,3.4 L8.7,4.2 L8.6,5 L8.1,5.5 L7.3,5.8 L6.6,6.1 L6.3,6.8 L6,7.6 L5.6,8.2 L4.9,8.5 L4,8.4 L3.3,8.4 L2.7,8.8 L2.2,9.5 L1.5,9.9 L0.7,9.8 L0,9.3 L-0.7,9 L-1.4,9.1 L-2.2,9.5 L-2.9,9.5 L-3.6,9.1 L-4,8.4 L-4.5,7.8 L-5.2,7.6 L-6,7.6 L-6.8,7.3 L-7.2,6.7 L-7.3,5.8 L-7.5,5.1 L-8,4.6 L-8.7,4.2 L-9.3,3.6 L-9.3,2.9 L-9.1,2.1 L-8.9,1.3 L-9.2,0.7 L-9.7,0 L-9.9,-0.7 L-9.7,-1.5 L-9.1,-2.1 L-8.6,-2.7 L-8.6,-3.4 L-8.7,-4.2 L-8.6,-5 L-8.1,-5.5 L-7.3,-5.8 L-6.6,-6.1 L-6.3,-6.8 L-6,-7.6 L-5.6,-8.2 L-4.9,-8.5 L-4,-8.4 L-3.3,-8.4 L-2.7,-8.8 L-2.2,-9.5 L-1.5,-9.9 L-0.7,-9.8 L-0,-9.3 L0.7,-9 L1.4,-9.1 L2.2,-9.5 L2.9,-9.5 L3.6,-9.1 L4,-8.4 L4.5,-7.8 L5.2,-7.6 L6,-7.6 L6.8,-7.3 L7.2,-6.7 L7.3,-5.8 L7.5,-5.1 L8,-4.6 L8.7,-4.2 L9.3,-3.6 L9.3,-2.9 L9.1,-2.1 L8.9,-1.3 L9.2,-0.7Z" fill="none" stroke="#86a8c4" stroke-width="1.1" opacity=".9"/></g><circle r="19" fill="#24347e" stroke="#f0c25a" stroke-width="1.2"/><text y="5" text-anchor="middle" font-family="'JetBrains Mono','SF Mono',SFMono-Regular,Consolas,Menlo,monospace" font-size="15" font-weight="700" fill="#f9efcf">N</text></g><text x="776.5" y="210" text-anchor="middle" font-family="Georgia,'Iowan Old Style','Palatino Linotype','DejaVu Serif',serif" font-size="12.5" fill="#eef0fa">Next.js</text><g transform="translate(121.5,262)"><circle r="42" fill="url(#gl)"/><g class="a spin"><path d="M37.4,0 L35.7,2.7 L34,5.1 L33.7,7.7 L34.6,10.7 L35.1,13.8 L33.7,16.2 L31,17.9 L28.4,19.3 L27,21.6 L26.6,24.6 L25.6,27.6 L23.3,29.3 L20.1,29.6 L17.2,29.7 L15,31.1 L13.2,33.7 L11.1,36 L8.3,36.5 L5.3,35.4 L2.6,34.2 L0,34.6 L-2.7,36.1 L-5.6,37.2 L-8.3,36.5 L-10.5,34.2 L-12.5,32 L-15,31.1 L-18.1,31.4 L-21.2,31.1 L-23.3,29.3 L-24.3,26.2 L-25.2,23.4 L-27,21.6 L-29.9,20.4 L-32.6,18.8 L-33.7,16.2 L-33.3,13.1 L-32.8,10.1 L-33.7,7.7 L-35.8,5.4 L-37.6,2.8 L-37.4,0 L-35.7,-2.7 L-34,-5.1 L-33.7,-7.7 L-34.6,-10.7 L-35.1,-13.8 L-33.7,-16.2 L-31,-17.9 L-28.4,-19.3 L-27,-21.6 L-26.6,-24.6 L-25.6,-27.6 L-23.3,-29.3 L-20.1,-29.6 L-17.2,-29.7 L-15,-31.1 L-13.2,-33.7 L-11.1,-36 L-8.3,-36.5 L-5.3,-35.4 L-2.6,-34.2 L-0,-34.6 L2.7,-36.1 L5.6,-37.2 L8.3,-36.5 L10.5,-34.2 L12.5,-32 L15,-31.1 L18.1,-31.4 L21.2,-31.1 L23.3,-29.3 L24.3,-26.2 L25.2,-23.4 L27,-21.6 L29.9,-20.4 L32.6,-18.8 L33.7,-16.2 L33.3,-13.1 L32.8,-10.1 L33.7,-7.7 L35.8,-5.4 L37.6,-2.8Z" fill="#34507f" stroke="#86a8c4" stroke-width="1.2"/><path d="M29.3,0 L28,2.1 L27.9,4.2 L28.8,6.6 L29.3,9.1 L28.5,11.2 L26.4,12.7 L24.3,14 L23.3,15.9 L23.1,18.4 L22.5,20.9 L20.8,22.4 L18.2,22.9 L15.8,23.2 L14.1,24.4 L12.8,26.6 L11.2,28.6 L9,29.2 L6.5,28.5 L4.2,27.7 L2.1,28.1 L0,29.5 L-2.3,30.6 L-4.6,30.2 L-6.5,28.5 L-8.3,26.8 L-10.3,26.2 L-12.8,26.6 L-15.4,26.6 L-17.2,25.3 L-18.2,22.9 L-19.1,20.6 L-20.6,19.2 L-23.1,18.4 L-25.4,17.3 L-26.5,15.3 L-26.4,12.7 L-26.1,10.2 L-26.9,8.3 L-28.8,6.6 L-30.4,4.6 L-30.5,2.3 L-29.3,0 L-28,-2.1 L-27.9,-4.2 L-28.8,-6.6 L-29.3,-9.1 L-28.5,-11.2 L-26.4,-12.7 L-24.3,-14 L-23.3,-15.9 L-23.1,-18.4 L-22.5,-20.9 L-20.8,-22.4 L-18.2,-22.9 L-15.8,-23.2 L-14.1,-24.4 L-12.8,-26.6 L-11.2,-28.6 L-9,-29.2 L-6.5,-28.5 L-4.2,-27.7 L-2.1,-28.1 L-0,-29.5 L2.3,-30.6 L4.6,-30.2 L6.5,-28.5 L8.3,-26.8 L10.3,-26.2 L12.8,-26.6 L15.4,-26.6 L17.2,-25.3 L18.2,-22.9 L19.1,-20.6 L20.6,-19.2 L23.1,-18.4 L25.4,-17.3 L26.5,-15.3 L26.4,-12.7 L26.1,-10.2 L26.9,-8.3 L28.8,-6.6 L30.4,-4.6 L30.5,-2.3Z" fill="none" stroke="#86a8c4" stroke-width="1.1" opacity=".9"/><path d="M21.7,0 L21.7,1.6 L22.5,3.4 L23.2,5.3 L22.7,7 L21.1,8.3 L19.6,9.4 L18.9,10.9 L18.8,12.8 L18.6,14.8 L17.4,16.1 L15.4,16.6 L13.6,17 L12.3,18 L11.4,19.7 L10.3,21.4 L8.7,22.1 L6.7,21.7 L4.8,21.2 L3.2,21.5 L1.7,22.7 L0,23.8 L-1.8,23.7 L-3.4,22.5 L-4.8,21.2 L-6.4,20.8 L-8.3,21.2 L-10.3,21.4 L-11.9,20.5 L-12.8,18.8 L-13.6,17 L-14.8,16 L-16.7,15.5 L-18.6,14.8 L-19.6,13.4 L-19.7,11.4 L-19.6,9.4 L-20.3,8 L-21.8,6.7 L-23.2,5.3 L-23.5,3.5 L-22.6,1.7 L-21.7,0 L-21.7,-1.6 L-22.5,-3.4 L-23.2,-5.3 L-22.7,-7 L-21.1,-8.3 L-19.6,-9.4 L-18.9,-10.9 L-18.8,-12.8 L-18.6,-14.8 L-17.4,-16.1 L-15.4,-16.6 L-13.6,-17 L-12.3,-18 L-11.4,-19.7 L-10.3,-21.4 L-8.7,-22.1 L-6.7,-21.7 L-4.8,-21.2 L-3.2,-21.5 L-1.7,-22.7 L-0,-23.8 L1.8,-23.7 L3.4,-22.5 L4.8,-21.2 L6.4,-20.8 L8.3,-21.2 L10.3,-21.4 L11.9,-20.5 L12.8,-18.8 L13.6,-17 L14.8,-16 L16.7,-15.5 L18.6,-14.8 L19.6,-13.4 L19.7,-11.4 L19.6,-9.4 L20.3,-8 L21.8,-6.7 L23.2,-5.3 L23.5,-3.5 L22.6,-1.7Z" fill="none" stroke="#86a8c4" stroke-width="1.1" opacity=".9"/><path d="M15.4,0 L16.1,1.2 L16.6,2.5 L16.4,3.7 L15.4,4.8 L14.4,5.6 L13.9,6.7 L14,8.1 L13.9,9.5 L13.2,10.5 L11.8,11 L10.5,11.3 L9.6,12.1 L9.1,13.3 L8.4,14.6 L7.3,15.2 L5.9,15 L4.5,14.7 L3.4,15 L2.4,15.9 L1.3,16.8 L0,16.8 L-1.2,16.1 L-2.3,15.3 L-3.4,15 L-4.8,15.4 L-6.1,15.7 L-7.3,15.2 L-8.1,14 L-8.7,12.8 L-9.6,12.1 L-11,11.8 L-12.3,11.4 L-13.2,10.5 L-13.3,9.1 L-13.4,7.7 L-13.9,6.7 L-15,5.9 L-16.1,5 L-16.4,3.7 L-16,2.4 L-15.4,1.2 L-15.4,0 L-16.1,-1.2 L-16.6,-2.5 L-16.4,-3.7 L-15.4,-4.8 L-14.4,-5.6 L-13.9,-6.7 L-14,-8.1 L-13.9,-9.5 L-13.2,-10.5 L-11.8,-11 L-10.5,-11.3 L-9.6,-12.1 L-9.1,-13.3 L-8.4,-14.6 L-7.3,-15.2 L-5.9,-15 L-4.5,-14.7 L-3.4,-15 L-2.4,-15.9 L-1.3,-16.8 L-0,-16.8 L1.2,-16.1 L2.3,-15.3 L3.4,-15 L4.8,-15.4 L6.1,-15.7 L7.3,-15.2 L8.1,-14 L8.7,-12.8 L9.6,-12.1 L11,-11.8 L12.3,-11.4 L13.2,-10.5 L13.3,-9.1 L13.4,-7.7 L13.9,-6.7 L15,-5.9 L16.1,-5 L16.4,-3.7 L16,-2.4 L15.4,-1.2Z" fill="none" stroke="#86a8c4" stroke-width="1.1" opacity=".9"/><path d="M9.5,0 L9.9,0.7 L9.8,1.5 L9.3,2.1 L8.7,2.7 L8.5,3.3 L8.5,4.1 L8.6,5 L8.2,5.6 L7.5,5.9 L6.7,6.2 L6.2,6.7 L5.9,7.4 L5.6,8.2 L5,8.6 L4.1,8.6 L3.3,8.5 L2.7,8.7 L2.1,9.2 L1.5,9.8 L0.7,9.9 L0,9.5 L-0.7,9.1 L-1.4,9 L-2.1,9.2 L-2.9,9.5 L-3.6,9.2 L-4.1,8.6 L-4.6,7.9 L-5.1,7.5 L-5.9,7.4 L-6.7,7.3 L-7.3,6.8 L-7.5,5.9 L-7.5,5.1 L-7.9,4.5 L-8.5,4.1 L-9.2,3.6 L-9.5,2.9 L-9.3,2.1 L-9,1.4 L-9.1,0.7 L-9.5,0 L-9.9,-0.7 L-9.8,-1.5 L-9.3,-2.1 L-8.7,-2.7 L-8.5,-3.3 L-8.5,-4.1 L-8.6,-5 L-8.2,-5.6 L-7.5,-5.9 L-6.7,-6.2 L-6.2,-6.7 L-5.9,-7.4 L-5.6,-8.2 L-5,-8.6 L-4.1,-8.6 L-3.3,-8.5 L-2.7,-8.7 L-2.1,-9.2 L-1.5,-9.8 L-0.7,-9.9 L-0,-9.5 L0.7,-9.1 L1.4,-9 L2.1,-9.2 L2.9,-9.5 L3.6,-9.2 L4.1,-8.6 L4.6,-7.9 L5.1,-7.5 L5.9,-7.4 L6.7,-7.3 L7.3,-6.8 L7.5,-5.9 L7.5,-5.1 L7.9,-4.5 L8.5,-4.1 L9.2,-3.6 L9.5,-2.9 L9.3,-2.1 L9,-1.4 L9.1,-0.7Z" fill="none" stroke="#86a8c4" stroke-width="1.1" opacity=".9"/></g><circle r="19" fill="#24347e" stroke="#f0c25a" stroke-width="1.2"/><text y="5" text-anchor="middle" font-family="'JetBrains Mono','SF Mono',SFMono-Regular,Consolas,Menlo,monospace" font-size="15" font-weight="700" fill="#f9efcf">dj</text></g><text x="121.5" y="324" text-anchor="middle" font-family="Georgia,'Iowan Old Style','Palatino Linotype','DejaVu Serif',serif" font-size="12.5" fill="#eef0fa">Django</text><g transform="translate(252.5,262)"><circle r="42" fill="url(#gl)"/><g class="a spinr"><path d="M34.2,0 L35.1,2.6 L36.6,5.5 L36.8,8.4 L35.1,10.8 L32.6,12.8 L30.8,14.8 L30.5,17.6 L30.6,20.9 L29.5,23.6 L27,25 L23.8,25.6 L21.3,26.7 L19.8,29.1 L18.5,32.1 L16.4,34.1 L13.4,34.2 L10.3,33.4 L7.6,33.3 L5.3,34.8 L2.8,36.9 L0,37.8 L-2.7,36.7 L-5.2,34.6 L-7.6,33.3 L-10.4,33.7 L-13.5,34.5 L-16.4,34.1 L-18.4,31.8 L-19.7,28.9 L-21.3,26.7 L-24,25.8 L-27.1,25.2 L-29.5,23.6 L-30.4,20.7 L-30.3,17.5 L-30.8,14.8 L-32.8,12.9 L-35.4,10.9 L-36.8,8.4 L-36.4,5.5 L-34.9,2.6 L-34.2,0 L-35.1,-2.6 L-36.6,-5.5 L-36.8,-8.4 L-35.1,-10.8 L-32.6,-12.8 L-30.8,-14.8 L-30.5,-17.6 L-30.6,-20.9 L-29.5,-23.6 L-27,-25 L-23.8,-25.6 L-21.3,-26.7 L-19.8,-29.1 L-18.5,-32.1 L-16.4,-34.1 L-13.4,-34.2 L-10.3,-33.4 L-7.6,-33.3 L-5.3,-34.8 L-2.8,-36.9 L-0,-37.8 L2.7,-36.7 L5.2,-34.6 L7.6,-33.3 L10.4,-33.7 L13.5,-34.5 L16.4,-34.1 L18.4,-31.8 L19.7,-28.9 L21.3,-26.7 L24,-25.8 L27.1,-25.2 L29.5,-23.6 L30.4,-20.7 L30.3,-17.5 L30.8,-14.8 L32.8,-12.9 L35.4,-10.9 L36.8,-8.4 L36.4,-5.5 L34.9,-2.6Z" fill="#34507f" stroke="#86a8c4" stroke-width="1.2"/><path d="M28.7,0 L30.1,2.3 L30.5,4.6 L29.3,6.7 L27.3,8.4 L26,10.2 L25.8,12.4 L26.1,15.1 L25.5,17.4 L23.5,18.7 L21,19.5 L19,20.5 L17.9,22.4 L17,24.9 L15.4,26.7 L13,27.1 L10.4,26.6 L8.2,26.7 L6.4,28 L4.5,29.8 L2.3,30.8 L0,30.1 L-2.1,28.5 L-4.2,27.6 L-6.4,28 L-8.9,28.8 L-11.3,28.7 L-13,27.1 L-14.3,24.8 L-15.7,23.1 L-17.9,22.4 L-20.5,22.1 L-22.6,21 L-23.5,18.7 L-23.6,16.1 L-24.2,14 L-25.8,12.4 L-28.1,11 L-29.5,9.1 L-29.3,6.7 L-28.3,4.3 L-27.8,2.1 L-28.7,0 L-30.1,-2.3 L-30.5,-4.6 L-29.3,-6.7 L-27.3,-8.4 L-26,-10.2 L-25.8,-12.4 L-26.1,-15.1 L-25.5,-17.4 L-23.5,-18.7 L-21,-19.5 L-19,-20.5 L-17.9,-22.4 L-17,-24.9 L-15.4,-26.7 L-13,-27.1 L-10.4,-26.6 L-8.2,-26.7 L-6.4,-28 L-4.5,-29.8 L-2.3,-30.8 L-0,-30.1 L2.1,-28.5 L4.2,-27.6 L6.4,-28 L8.9,-28.8 L11.3,-28.7 L13,-27.1 L14.3,-24.8 L15.7,-23.1 L17.9,-22.4 L20.5,-22.1 L22.6,-21 L23.5,-18.7 L23.6,-16.1 L24.2,-14 L25.8,-12.4 L28.1,-11 L29.5,-9.1 L29.3,-6.7 L28.3,-4.3 L27.8,-2.1Z" fill="none" stroke="#86a8c4" stroke-width="1.1" opacity=".9"/><path d="M23.3,0 L23.8,1.8 L23.1,3.5 L21.6,4.9 L20.7,6.4 L20.6,8.1 L21,10.1 L20.7,11.9 L19.3,13.1 L17.4,13.8 L15.8,14.7 L15.1,16.3 L14.5,18.2 L13.5,19.7 L11.7,20.2 L9.6,20 L7.9,20.1 L6.5,21.2 L5.2,22.7 L3.6,23.6 L1.7,23.3 L0,22.2 L-1.6,21.6 L-3.3,21.9 L-5.2,22.7 L-7,22.8 L-8.5,21.7 L-9.6,20 L-10.8,18.7 L-12.5,18.3 L-14.5,18.2 L-16.2,17.5 L-17.1,15.9 L-17.4,13.8 L-17.9,12.2 L-19.2,11.1 L-21,10.1 L-22.2,8.7 L-22.3,6.9 L-21.6,4.9 L-21.4,3.2 L-22.1,1.7 L-23.3,0 L-23.8,-1.8 L-23.1,-3.5 L-21.6,-4.9 L-20.7,-6.4 L-20.6,-8.1 L-21,-10.1 L-20.7,-11.9 L-19.3,-13.1 L-17.4,-13.8 L-15.8,-14.7 L-15.1,-16.3 L-14.5,-18.2 L-13.5,-19.7 L-11.7,-20.2 L-9.6,-20 L-7.9,-20.1 L-6.5,-21.2 L-5.2,-22.7 L-3.6,-23.6 L-1.7,-23.3 L-0,-22.2 L1.6,-21.6 L3.3,-21.9 L5.2,-22.7 L7,-22.8 L8.5,-21.7 L9.6,-20 L10.8,-18.7 L12.5,-18.3 L14.5,-18.2 L16.2,-17.5 L17.1,-15.9 L17.4,-13.8 L17.9,-12.2 L19.2,-11.1 L21,-10.1 L22.2,-8.7 L22.3,-6.9 L21.6,-4.9 L21.4,-3.2 L22.1,-1.7Z" fill="none" stroke="#86a8c4" stroke-width="1.1" opacity=".9"/><path d="M16.9,0 L16.5,1.2 L15.6,2.3 L14.9,3.4 L15,4.6 L15.3,6 L15.3,7.3 L14.4,8.3 L13,8.9 L12,9.6 L11.5,10.7 L11.2,12.1 L10.6,13.2 L9.3,13.7 L7.9,13.7 L6.6,13.8 L5.7,14.6 L4.9,15.8 L3.8,16.5 L2.5,16.4 L1.2,15.7 L0,15.3 L-1.2,15.6 L-2.5,16.3 L-3.8,16.5 L-4.9,15.8 L-5.8,14.7 L-6.6,13.8 L-7.8,13.6 L-9.3,13.6 L-10.6,13.2 L-11.3,12.1 L-11.6,10.7 L-12,9.6 L-13,8.8 L-14.3,8.2 L-15.3,7.3 L-15.4,6.1 L-15.1,4.6 L-14.9,3.4 L-15.5,2.3 L-16.4,1.2 L-16.9,0 L-16.5,-1.2 L-15.6,-2.3 L-14.9,-3.4 L-15,-4.6 L-15.3,-6 L-15.3,-7.3 L-14.4,-8.3 L-13,-8.9 L-12,-9.6 L-11.5,-10.7 L-11.2,-12.1 L-10.6,-13.2 L-9.3,-13.7 L-7.9,-13.7 L-6.6,-13.8 L-5.7,-14.6 L-4.9,-15.8 L-3.8,-16.5 L-2.5,-16.4 L-1.2,-15.7 L-0,-15.3 L1.2,-15.6 L2.5,-16.3 L3.8,-16.5 L4.9,-15.8 L5.8,-14.7 L6.6,-13.8 L7.8,-13.6 L9.3,-13.6 L10.6,-13.2 L11.3,-12.1 L11.6,-10.7 L12,-9.6 L13,-8.8 L14.3,-8.2 L15.3,-7.3 L15.4,-6.1 L15.1,-4.6 L14.9,-3.4 L15.5,-2.3 L16.4,-1.2Z" fill="none" stroke="#86a8c4" stroke-width="1.1" opacity=".9"/><path d="M9.8,0 L9.3,0.7 L8.9,1.3 L9,2.1 L9.3,2.9 L9.3,3.6 L8.8,4.2 L8.1,4.7 L7.5,5.1 L7.2,5.8 L7.1,6.6 L6.8,7.3 L6.1,7.6 L5.2,7.7 L4.5,7.8 L4,8.3 L3.5,9 L2.9,9.5 L2.2,9.5 L1.4,9.2 L0.7,9 L0,9.2 L-0.7,9.7 L-1.5,9.9 L-2.2,9.5 L-2.7,8.9 L-3.3,8.4 L-4,8.3 L-4.8,8.4 L-5.6,8.2 L-6.1,7.6 L-6.3,6.8 L-6.6,6.1 L-7.2,5.8 L-8,5.5 L-8.6,5 L-8.8,4.2 L-8.7,3.4 L-8.6,2.7 L-9,2.1 L-9.6,1.4 L-9.9,0.7 L-9.8,0 L-9.3,-0.7 L-8.9,-1.3 L-9,-2.1 L-9.3,-2.9 L-9.3,-3.6 L-8.8,-4.2 L-8.1,-4.7 L-7.5,-5.1 L-7.2,-5.8 L-7.1,-6.6 L-6.8,-7.3 L-6.1,-7.6 L-5.2,-7.7 L-4.5,-7.8 L-4,-8.3 L-3.5,-9 L-2.9,-9.5 L-2.2,-9.5 L-1.4,-9.2 L-0.7,-9 L-0,-9.2 L0.7,-9.7 L1.5,-9.9 L2.2,-9.5 L2.7,-8.9 L3.3,-8.4 L4,-8.3 L4.8,-8.4 L5.6,-8.2 L6.1,-7.6 L6.3,-6.8 L6.6,-6.1 L7.2,-5.8 L8,-5.5 L8.6,-5 L8.8,-4.2 L8.7,-3.4 L8.6,-2.7 L9,-2.1 L9.6,-1.4 L9.9,-0.7Z" fill="none" stroke="#86a8c4" stroke-width="1.1" opacity=".9"/></g><circle r="19" fill="#24347e" stroke="#f0c25a" stroke-width="1.2"/><text y="5" text-anchor="middle" font-family="'JetBrains Mono','SF Mono',SFMono-Regular,Consolas,Menlo,monospace" font-size="15" font-weight="700" fill="#f9efcf">FA</text></g><text x="252.5" y="324" text-anchor="middle" font-family="Georgia,'Iowan Old Style','Palatino Linotype','DejaVu Serif',serif" font-size="12.5" fill="#eef0fa">FastAPI</text><g transform="translate(383.5,262)"><circle r="42" fill="url(#gl)"/><g class="a spin"><path d="M34.2,0 L35.3,2.6 L36.7,5.5 L36.8,8.4 L35,10.8 L32.4,12.7 L30.8,14.9 L30.6,17.7 L30.7,20.9 L29.5,23.6 L26.8,24.9 L23.7,25.5 L21.3,26.8 L19.9,29.2 L18.6,32.2 L16.4,34 L13.4,34.1 L10.3,33.3 L7.6,33.4 L5.3,35 L2.8,37.1 L0,37.8 L-2.7,36.5 L-5.2,34.5 L-7.6,33.4 L-10.4,33.8 L-13.6,34.6 L-16.4,34 L-18.3,31.7 L-19.6,28.8 L-21.3,26.8 L-24.1,25.9 L-27.2,25.3 L-29.5,23.6 L-30.3,20.6 L-30.2,17.4 L-30.8,14.9 L-32.9,12.9 L-35.5,11 L-36.8,8.4 L-36.2,5.5 L-34.7,2.6 L-34.2,0 L-35.3,-2.6 L-36.7,-5.5 L-36.8,-8.4 L-35,-10.8 L-32.4,-12.7 L-30.8,-14.9 L-30.6,-17.7 L-30.7,-20.9 L-29.5,-23.6 L-26.8,-24.9 L-23.7,-25.5 L-21.3,-26.8 L-19.9,-29.2 L-18.6,-32.2 L-16.4,-34 L-13.4,-34.1 L-10.3,-33.3 L-7.6,-33.4 L-5.3,-35 L-2.8,-37.1 L-0,-37.8 L2.7,-36.5 L5.2,-34.5 L7.6,-33.4 L10.4,-33.8 L13.6,-34.6 L16.4,-34 L18.3,-31.7 L19.6,-28.8 L21.3,-26.8 L24.1,-25.9 L27.2,-25.3 L29.5,-23.6 L30.3,-20.6 L30.2,-17.4 L30.8,-14.9 L32.9,-12.9 L35.5,-11 L36.8,-8.4 L36.2,-5.5 L34.7,-2.6Z" fill="#34507f" stroke="#86a8c4" stroke-width="1.2"/><path d="M28.8,0 L30.2,2.3 L30.5,4.6 L29.2,6.7 L27.2,8.4 L26,10.2 L26,12.5 L26.2,15.1 L25.5,17.4 L23.4,18.7 L20.9,19.4 L19,20.5 L18,22.5 L17,25 L15.4,26.7 L13,27 L10.4,26.5 L8.2,26.7 L6.4,28.1 L4.5,29.9 L2.3,30.7 L0,29.9 L-2.1,28.4 L-4.2,27.6 L-6.4,28.1 L-8.9,28.9 L-11.3,28.7 L-13,27 L-14.2,24.7 L-15.7,23.1 L-18,22.5 L-20.6,22.2 L-22.6,21 L-23.4,18.7 L-23.5,16 L-24.2,14 L-26,12.5 L-28.2,11.1 L-29.5,9.1 L-29.2,6.7 L-28.2,4.2 L-27.8,2.1 L-28.8,0 L-30.2,-2.3 L-30.5,-4.6 L-29.2,-6.7 L-27.2,-8.4 L-26,-10.2 L-26,-12.5 L-26.2,-15.1 L-25.5,-17.4 L-23.4,-18.7 L-20.9,-19.4 L-19,-20.5 L-18,-22.5 L-17,-25 L-15.4,-26.7 L-13,-27 L-10.4,-26.5 L-8.2,-26.7 L-6.4,-28.1 L-4.5,-29.9 L-2.3,-30.7 L-0,-29.9 L2.1,-28.4 L4.2,-27.6 L6.4,-28.1 L8.9,-28.9 L11.3,-28.7 L13,-27 L14.2,-24.7 L15.7,-23.1 L18,-22.5 L20.6,-22.2 L22.6,-21 L23.4,-18.7 L23.5,-16 L24.2,-14 L26,-12.5 L28.2,-11.1 L29.5,-9.1 L29.2,-6.7 L28.2,-4.2 L27.8,-2.1Z" fill="none" stroke="#86a8c4" stroke-width="1.1" opacity=".9"/><path d="M23.4,0 L23.8,1.8 L23,3.5 L21.6,4.9 L20.7,6.4 L20.7,8.1 L21.1,10.2 L20.7,11.9 L19.2,13.1 L17.3,13.8 L15.8,14.7 L15.1,16.3 L14.6,18.3 L13.5,19.7 L11.6,20.1 L9.6,19.9 L7.9,20.1 L6.6,21.3 L5.2,22.8 L3.6,23.6 L1.7,23.2 L0,22.1 L-1.6,21.6 L-3.3,22 L-5.2,22.8 L-7,22.8 L-8.5,21.6 L-9.6,19.9 L-10.8,18.7 L-12.5,18.4 L-14.6,18.3 L-16.2,17.5 L-17,15.8 L-17.3,13.8 L-17.9,12.2 L-19.3,11.1 L-21.1,10.2 L-22.2,8.7 L-22.2,6.9 L-21.6,4.9 L-21.4,3.2 L-22.2,1.7 L-23.4,0 L-23.8,-1.8 L-23,-3.5 L-21.6,-4.9 L-20.7,-6.4 L-20.7,-8.1 L-21.1,-10.2 L-20.7,-11.9 L-19.2,-13.1 L-17.3,-13.8 L-15.8,-14.7 L-15.1,-16.3 L-14.6,-18.3 L-13.5,-19.7 L-11.6,-20.1 L-9.6,-19.9 L-7.9,-20.1 L-6.6,-21.3 L-5.2,-22.8 L-3.6,-23.6 L-1.7,-23.2 L-0,-22.1 L1.6,-21.6 L3.3,-22 L5.2,-22.8 L7,-22.8 L8.5,-21.6 L9.6,-19.9 L10.8,-18.7 L12.5,-18.4 L14.6,-18.3 L16.2,-17.5 L17,-15.8 L17.3,-13.8 L17.9,-12.2 L19.3,-11.1 L21.1,-10.2 L22.2,-8.7 L22.2,-6.9 L21.6,-4.9 L21.4,-3.2 L22.2,-1.7Z" fill="none" stroke="#86a8c4" stroke-width="1.1" opacity=".9"/><path d="M16.9,0 L16.5,1.2 L15.5,2.3 L14.9,3.4 L15,4.6 L15.4,6 L15.3,7.3 L14.3,8.3 L13,8.8 L12,9.6 L11.5,10.7 L11.3,12.1 L10.6,13.2 L9.3,13.6 L7.9,13.6 L6.6,13.8 L5.8,14.7 L4.9,15.8 L3.8,16.5 L2.5,16.3 L1.2,15.7 L0,15.3 L-1.2,15.7 L-2.5,16.4 L-3.8,16.5 L-4.9,15.8 L-5.7,14.6 L-6.6,13.8 L-7.9,13.6 L-9.3,13.7 L-10.6,13.2 L-11.2,12.1 L-11.5,10.7 L-12,9.6 L-13,8.9 L-14.3,8.3 L-15.3,7.3 L-15.4,6 L-15,4.6 L-14.9,3.4 L-15.6,2.3 L-16.5,1.2 L-16.9,0 L-16.5,-1.2 L-15.5,-2.3 L-14.9,-3.4 L-15,-4.6 L-15.4,-6 L-15.3,-7.3 L-14.3,-8.3 L-13,-8.8 L-12,-9.6 L-11.5,-10.7 L-11.3,-12.1 L-10.6,-13.2 L-9.3,-13.6 L-7.9,-13.6 L-6.6,-13.8 L-5.8,-14.7 L-4.9,-15.8 L-3.8,-16.5 L-2.5,-16.3 L-1.2,-15.7 L-0,-15.3 L1.2,-15.7 L2.5,-16.4 L3.8,-16.5 L4.9,-15.8 L5.7,-14.6 L6.6,-13.8 L7.9,-13.6 L9.3,-13.7 L10.6,-13.2 L11.2,-12.1 L11.5,-10.7 L12,-9.6 L13,-8.9 L14.3,-8.3 L15.3,-7.3 L15.4,-6 L15,-4.6 L14.9,-3.4 L15.6,-2.3 L16.5,-1.2Z" fill="none" stroke="#86a8c4" stroke-width="1.1" opacity=".9"/><path d="M9.7,0 L9.2,0.7 L8.9,1.3 L9,2.1 L9.3,2.9 L9.3,3.6 L8.8,4.2 L8,4.6 L7.5,5.1 L7.2,5.8 L7.1,6.6 L6.8,7.3 L6.1,7.6 L5.2,7.7 L4.5,7.8 L4,8.3 L3.6,9.1 L2.9,9.5 L2.2,9.5 L1.4,9.2 L0.7,9 L0,9.3 L-0.7,9.7 L-1.5,9.9 L-2.2,9.5 L-2.7,8.9 L-3.3,8.4 L-4,8.3 L-4.9,8.4 L-5.6,8.2 L-6.1,7.6 L-6.3,6.8 L-6.6,6.1 L-7.2,5.8 L-8,5.5 L-8.6,5 L-8.8,4.2 L-8.6,3.4 L-8.6,2.7 L-9,2.1 L-9.6,1.5 L-10,0.7 L-9.7,0 L-9.2,-0.7 L-8.9,-1.3 L-9,-2.1 L-9.3,-2.9 L-9.3,-3.6 L-8.8,-4.2 L-8,-4.6 L-7.5,-5.1 L-7.2,-5.8 L-7.1,-6.6 L-6.8,-7.3 L-6.1,-7.6 L-5.2,-7.7 L-4.5,-7.8 L-4,-8.3 L-3.6,-9.1 L-2.9,-9.5 L-2.2,-9.5 L-1.4,-9.2 L-0.7,-9 L-0,-9.3 L0.7,-9.7 L1.5,-9.9 L2.2,-9.5 L2.7,-8.9 L3.3,-8.4 L4,-8.3 L4.9,-8.4 L5.6,-8.2 L6.1,-7.6 L6.3,-6.8 L6.6,-6.1 L7.2,-5.8 L8,-5.5 L8.6,-5 L8.8,-4.2 L8.6,-3.4 L8.6,-2.7 L9,-2.1 L9.6,-1.5 L10,-0.7Z" fill="none" stroke="#86a8c4" stroke-width="1.1" opacity=".9"/></g><circle r="19" fill="#24347e" stroke="#f0c25a" stroke-width="1.2"/><text y="5" text-anchor="middle" font-family="'JetBrains Mono','SF Mono',SFMono-Regular,Consolas,Menlo,monospace" font-size="15" font-weight="700" fill="#f9efcf">Pg</text></g><text x="383.5" y="324" text-anchor="middle" font-family="Georgia,'Iowan Old Style','Palatino Linotype','DejaVu Serif',serif" font-size="12.5" fill="#eef0fa">PostgreSQL</text><g transform="translate(514.5,262)"><circle r="42" fill="url(#gl)"/><g class="a spinr"><path d="M37.4,0 L37.6,2.8 L35.9,5.4 L33.8,7.7 L32.8,10.1 L33.2,13 L33.7,16.2 L32.6,18.8 L30,20.5 L27.1,21.6 L25.1,23.3 L24.3,26.2 L23.3,29.2 L21.2,31.1 L18.2,31.4 L15,31.2 L12.5,31.9 L10.5,34.1 L8.3,36.4 L5.6,37.3 L2.7,36.2 L0,34.6 L-2.6,34.2 L-5.3,35.3 L-8.3,36.4 L-11.1,36 L-13.3,33.8 L-15,31.2 L-17.2,29.7 L-20.1,29.5 L-23.3,29.2 L-25.6,27.6 L-26.6,24.7 L-27.1,21.6 L-28.3,19.3 L-30.9,17.8 L-33.7,16.2 L-35.1,13.8 L-34.7,10.7 L-33.8,7.7 L-33.9,5.1 L-35.6,2.7 L-37.4,0 L-37.6,-2.8 L-35.9,-5.4 L-33.8,-7.7 L-32.8,-10.1 L-33.2,-13 L-33.7,-16.2 L-32.6,-18.8 L-30,-20.5 L-27.1,-21.6 L-25.1,-23.3 L-24.3,-26.2 L-23.3,-29.2 L-21.2,-31.1 L-18.2,-31.4 L-15,-31.2 L-12.5,-31.9 L-10.5,-34.1 L-8.3,-36.4 L-5.6,-37.3 L-2.7,-36.2 L-0,-34.6 L2.6,-34.2 L5.3,-35.3 L8.3,-36.4 L11.1,-36 L13.3,-33.8 L15,-31.2 L17.2,-29.7 L20.1,-29.5 L23.3,-29.2 L25.6,-27.6 L26.6,-24.7 L27.1,-21.6 L28.3,-19.3 L30.9,-17.8 L33.7,-16.2 L35.1,-13.8 L34.7,-10.7 L33.8,-7.7 L33.9,-5.1 L35.6,-2.7Z" fill="#34507f" stroke="#86a8c4" stroke-width="1.2"/><path d="M30.8,0 L29.6,2.2 L28,4.2 L27.3,6.2 L27.8,8.6 L28.3,11.1 L27.7,13.4 L25.7,14.8 L23.4,15.9 L21.9,17.4 L21.3,19.8 L20.7,22.3 L19.2,24.1 L16.7,24.5 L14.1,24.5 L12.1,25.2 L10.6,27 L9,29.1 L6.8,30 L4.4,29.4 L2.1,28.2 L0,28 L-2.2,29 L-4.5,30.1 L-6.8,30 L-8.8,28.4 L-10.3,26.3 L-12.1,25.2 L-14.5,25.2 L-17.2,25.2 L-19.2,24.1 L-20.2,21.8 L-20.7,19.2 L-21.9,17.4 L-24,16.4 L-26.4,15.2 L-27.7,13.4 L-27.6,10.9 L-27,8.3 L-27.3,6.2 L-28.7,4.3 L-30.4,2.3 L-30.8,0 L-29.6,-2.2 L-28,-4.2 L-27.3,-6.2 L-27.8,-8.6 L-28.3,-11.1 L-27.7,-13.4 L-25.7,-14.8 L-23.4,-15.9 L-21.9,-17.4 L-21.3,-19.8 L-20.7,-22.3 L-19.2,-24.1 L-16.7,-24.5 L-14.1,-24.5 L-12.1,-25.2 L-10.6,-27 L-9,-29.1 L-6.8,-30 L-4.4,-29.4 L-2.1,-28.2 L-0,-28 L2.2,-29 L4.5,-30.1 L6.8,-30 L8.8,-28.4 L10.3,-26.3 L12.1,-25.2 L14.5,-25.2 L17.2,-25.2 L19.2,-24.1 L20.2,-21.8 L20.7,-19.2 L21.9,-17.4 L24,-16.4 L26.4,-15.2 L27.7,-13.4 L27.6,-10.9 L27,-8.3 L27.3,-6.2 L28.7,-4.3 L30.4,-2.3Z" fill="none" stroke="#86a8c4" stroke-width="1.1" opacity=".9"/><path d="M23.1,0 L21.9,1.6 L21.4,3.2 L21.9,5 L22.5,6.9 L22.2,8.7 L20.8,10 L19,11 L17.9,12.2 L17.6,14 L17.3,16 L16.2,17.5 L14.4,18 L12.4,18.1 L10.8,18.8 L9.7,20.2 L8.6,21.9 L7,22.8 L5.1,22.5 L3.3,21.7 L1.6,21.6 L0,22.4 L-1.8,23.5 L-3.6,23.6 L-5.1,22.5 L-6.5,21 L-7.9,20.2 L-9.7,20.2 L-11.8,20.4 L-13.4,19.7 L-14.4,18 L-14.9,16.1 L-15.9,14.7 L-17.6,14 L-19.5,13.3 L-20.7,11.9 L-20.8,10 L-20.4,8 L-20.7,6.4 L-21.9,5 L-23.3,3.5 L-23.8,1.8 L-23.1,0 L-21.9,-1.6 L-21.4,-3.2 L-21.9,-5 L-22.5,-6.9 L-22.2,-8.7 L-20.8,-10 L-19,-11 L-17.9,-12.2 L-17.6,-14 L-17.3,-16 L-16.2,-17.5 L-14.4,-18 L-12.4,-18.1 L-10.8,-18.8 L-9.7,-20.2 L-8.6,-21.9 L-7,-22.8 L-5.1,-22.5 L-3.3,-21.7 L-1.6,-21.6 L-0,-22.4 L1.8,-23.5 L3.6,-23.6 L5.1,-22.5 L6.5,-21 L7.9,-20.2 L9.7,-20.2 L11.8,-20.4 L13.4,-19.7 L14.4,-18 L14.9,-16.1 L15.9,-14.7 L17.6,-14 L19.5,-13.3 L20.7,-11.9 L20.8,-10 L20.4,-8 L20.7,-6.4 L21.9,-5 L23.3,-3.5 L23.8,-1.8Z" fill="none" stroke="#86a8c4" stroke-width="1.1" opacity=".9"/><path d="M15.6,0 L15.3,1.1 L15.7,2.4 L16.2,3.7 L16.2,5 L15.2,6 L14,6.8 L13.3,7.7 L13.1,8.9 L13,10.4 L12.4,11.5 L11.1,12 L9.7,12.2 L8.6,12.7 L7.9,13.7 L7.2,15 L6.2,15.7 L4.8,15.7 L3.5,15.2 L2.3,15.2 L1.2,15.8 L0,16.7 L-1.3,16.9 L-2.4,16.2 L-3.5,15.2 L-4.5,14.7 L-5.8,14.8 L-7.2,15 L-8.5,14.7 L-9.2,13.5 L-9.7,12.2 L-10.4,11.2 L-11.6,10.8 L-13,10.4 L-14,9.5 L-14.2,8.2 L-14,6.8 L-14.3,5.6 L-15.2,4.7 L-16.2,3.7 L-16.7,2.5 L-16.3,1.2 L-15.6,0 L-15.3,-1.1 L-15.7,-2.4 L-16.2,-3.7 L-16.2,-5 L-15.2,-6 L-14,-6.8 L-13.3,-7.7 L-13.1,-8.9 L-13,-10.4 L-12.4,-11.5 L-11.1,-12 L-9.7,-12.2 L-8.6,-12.7 L-7.9,-13.7 L-7.2,-15 L-6.2,-15.7 L-4.8,-15.7 L-3.5,-15.2 L-2.3,-15.2 L-1.2,-15.8 L-0,-16.7 L1.3,-16.9 L2.4,-16.2 L3.5,-15.2 L4.5,-14.7 L5.8,-14.8 L7.2,-15 L8.5,-14.7 L9.2,-13.5 L9.7,-12.2 L10.4,-11.2 L11.6,-10.8 L13,-10.4 L14,-9.5 L14.2,-8.2 L14,-6.8 L14.3,-5.6 L15.2,-4.7 L16.2,-3.7 L16.7,-2.5 L16.3,-1.2Z" fill="none" stroke="#86a8c4" stroke-width="1.1" opacity=".9"/><path d="M9,0 L9.3,0.7 L9.7,1.5 L9.7,2.2 L9.2,2.9 L8.6,3.4 L8.1,3.9 L8.1,4.7 L8.1,5.5 L7.8,6.2 L7.1,6.6 L6.3,6.7 L5.6,7.1 L5.3,7.7 L4.9,8.5 L4.3,9 L3.5,9 L2.7,8.8 L2,8.8 L1.4,9.2 L0.7,9.8 L0,10 L-0.7,9.6 L-1.4,9.1 L-2,8.8 L-2.8,8.9 L-3.6,9.1 L-4.3,9 L-4.8,8.4 L-5.2,7.6 L-5.6,7.1 L-6.3,6.8 L-7.2,6.7 L-7.8,6.2 L-8,5.4 L-8,4.6 L-8.1,3.9 L-8.7,3.4 L-9.4,2.9 L-9.7,2.2 L-9.6,1.4 L-9.2,0.7 L-9,0 L-9.3,-0.7 L-9.7,-1.5 L-9.7,-2.2 L-9.2,-2.9 L-8.6,-3.4 L-8.1,-3.9 L-8.1,-4.7 L-8.1,-5.5 L-7.8,-6.2 L-7.1,-6.6 L-6.3,-6.7 L-5.6,-7.1 L-5.3,-7.7 L-4.9,-8.5 L-4.3,-9 L-3.5,-9 L-2.7,-8.8 L-2,-8.8 L-1.4,-9.2 L-0.7,-9.8 L-0,-10 L0.7,-9.6 L1.4,-9.1 L2,-8.8 L2.8,-8.9 L3.6,-9.1 L4.3,-9 L4.8,-8.4 L5.2,-7.6 L5.6,-7.1 L6.3,-6.8 L7.2,-6.7 L7.8,-6.2 L8,-5.4 L8,-4.6 L8.1,-3.9 L8.7,-3.4 L9.4,-2.9 L9.7,-2.2 L9.6,-1.4 L9.2,-0.7Z" fill="none" stroke="#86a8c4" stroke-width="1.1" opacity=".9"/></g><circle r="19" fill="#24347e" stroke="#f0c25a" stroke-width="1.2"/><text y="5" text-anchor="middle" font-family="'JetBrains Mono','SF Mono',SFMono-Regular,Consolas,Menlo,monospace" font-size="15" font-weight="700" fill="#f9efcf">Dk</text></g><text x="514.5" y="324" text-anchor="middle" font-family="Georgia,'Iowan Old Style','Palatino Linotype','DejaVu Serif',serif" font-size="12.5" fill="#eef0fa">Docker</text><g transform="translate(645.5,262)"><circle r="42" fill="url(#gl)"/><g class="a spin"><path d="M37.8,0 L36.7,2.8 L34.6,5.2 L33.3,7.6 L33.6,10.4 L34.4,13.5 L34.1,16.4 L31.9,18.4 L28.9,19.7 L26.7,21.3 L25.8,23.9 L25.2,27.1 L23.6,29.6 L20.7,30.4 L17.5,30.3 L14.8,30.8 L12.9,32.8 L10.9,35.3 L8.4,36.8 L5.5,36.4 L2.6,34.9 L0,34.2 L-2.6,35.1 L-5.5,36.6 L-8.4,36.8 L-10.8,35.2 L-12.8,32.6 L-14.8,30.8 L-17.6,30.5 L-20.8,30.6 L-23.6,29.6 L-25,27 L-25.7,23.8 L-26.7,21.3 L-29.1,19.8 L-32,18.5 L-34.1,16.4 L-34.3,13.4 L-33.5,10.3 L-33.3,7.6 L-34.8,5.2 L-36.9,2.8 L-37.8,0 L-36.7,-2.8 L-34.6,-5.2 L-33.3,-7.6 L-33.6,-10.4 L-34.4,-13.5 L-34.1,-16.4 L-31.9,-18.4 L-28.9,-19.7 L-26.7,-21.3 L-25.8,-23.9 L-25.2,-27.1 L-23.6,-29.6 L-20.7,-30.4 L-17.5,-30.3 L-14.8,-30.8 L-12.9,-32.8 L-10.9,-35.3 L-8.4,-36.8 L-5.5,-36.4 L-2.6,-34.9 L-0,-34.2 L2.6,-35.1 L5.5,-36.6 L8.4,-36.8 L10.8,-35.2 L12.8,-32.6 L14.8,-30.8 L17.6,-30.5 L20.8,-30.6 L23.6,-29.6 L25,-27 L25.7,-23.8 L26.7,-21.3 L29.1,-19.8 L32,-18.5 L34.1,-16.4 L34.3,-13.4 L33.5,-10.3 L33.3,-7.6 L34.8,-5.2 L36.9,-2.8Z" fill="#34507f" stroke="#86a8c4" stroke-width="1.2"/><path d="M30.1,0 L28.5,2.1 L27.6,4.2 L27.9,6.4 L28.8,8.9 L28.7,11.3 L27.1,13.1 L24.8,14.3 L23.1,15.7 L22.4,17.9 L22.1,20.5 L21,22.6 L18.8,23.5 L16.1,23.7 L14,24.2 L12.4,25.8 L11,28 L9.1,29.5 L6.7,29.3 L4.3,28.3 L2.1,27.8 L0,28.7 L-2.3,30 L-4.6,30.5 L-6.7,29.3 L-8.4,27.4 L-10.2,26 L-12.4,25.8 L-15.1,26.1 L-17.4,25.5 L-18.8,23.5 L-19.5,21 L-20.5,19 L-22.4,17.9 L-24.9,17 L-26.7,15.4 L-27.1,13.1 L-26.6,10.5 L-26.7,8.2 L-27.9,6.4 L-29.8,4.5 L-30.8,2.3 L-30.1,0 L-28.5,-2.1 L-27.6,-4.2 L-27.9,-6.4 L-28.8,-8.9 L-28.7,-11.3 L-27.1,-13.1 L-24.8,-14.3 L-23.1,-15.7 L-22.4,-17.9 L-22.1,-20.5 L-21,-22.6 L-18.8,-23.5 L-16.1,-23.7 L-14,-24.2 L-12.4,-25.8 L-11,-28 L-9.1,-29.5 L-6.7,-29.3 L-4.3,-28.3 L-2.1,-27.8 L-0,-28.7 L2.3,-30 L4.6,-30.5 L6.7,-29.3 L8.4,-27.4 L10.2,-26 L12.4,-25.8 L15.1,-26.1 L17.4,-25.5 L18.8,-23.5 L19.5,-21 L20.5,-19 L22.4,-17.9 L24.9,-17 L26.7,-15.4 L27.1,-13.1 L26.6,-10.5 L26.7,-8.2 L27.9,-6.4 L29.8,-4.5 L30.8,-2.3Z" fill="none" stroke="#86a8c4" stroke-width="1.1" opacity=".9"/><path d="M22.2,0 L21.6,1.6 L21.9,3.3 L22.7,5.2 L22.8,7 L21.7,8.5 L20,9.6 L18.7,10.8 L18.3,12.5 L18.2,14.5 L17.5,16.2 L15.9,17.1 L13.9,17.4 L12.2,17.9 L11.1,19.2 L10.1,21 L8.7,22.2 L6.9,22.3 L4.9,21.7 L3.2,21.4 L1.7,22.1 L0,23.3 L-1.8,23.8 L-3.5,23.1 L-4.9,21.7 L-6.4,20.7 L-8.1,20.6 L-10.1,21 L-11.9,20.7 L-13.2,19.3 L-13.9,17.4 L-14.7,15.8 L-16.2,15.1 L-18.2,14.5 L-19.7,13.5 L-20.2,11.7 L-20,9.6 L-20.1,7.9 L-21.2,6.5 L-22.7,5.2 L-23.6,3.6 L-23.3,1.7 L-22.2,0 L-21.6,-1.6 L-21.9,-3.3 L-22.7,-5.2 L-22.8,-7 L-21.7,-8.5 L-20,-9.6 L-18.7,-10.8 L-18.3,-12.5 L-18.2,-14.5 L-17.5,-16.2 L-15.9,-17.1 L-13.9,-17.4 L-12.2,-17.9 L-11.1,-19.2 L-10.1,-21 L-8.7,-22.2 L-6.9,-22.3 L-4.9,-21.7 L-3.2,-21.4 L-1.7,-22.1 L-0,-23.3 L1.8,-23.8 L3.5,-23.1 L4.9,-21.7 L6.4,-20.7 L8.1,-20.6 L10.1,-21 L11.9,-20.7 L13.2,-19.3 L13.9,-17.4 L14.7,-15.8 L16.2,-15.1 L18.2,-14.5 L19.7,-13.5 L20.2,-11.7 L20,-9.6 L20.1,-7.9 L21.2,-6.5 L22.7,-5.2 L23.6,-3.6 L23.3,-1.7Z" fill="none" stroke="#86a8c4" stroke-width="1.1" opacity=".9"/><path d="M15.3,0 L15.6,1.2 L16.3,2.5 L16.5,3.8 L15.9,4.9 L14.7,5.8 L13.8,6.6 L13.6,7.8 L13.6,9.3 L13.2,10.6 L12.2,11.3 L10.7,11.6 L9.6,12 L8.8,12.9 L8.2,14.3 L7.3,15.3 L6.1,15.4 L4.7,15.1 L3.4,14.9 L2.3,15.5 L1.2,16.4 L0,16.9 L-1.2,16.5 L-2.4,15.6 L-3.4,14.9 L-4.6,15 L-6,15.3 L-7.3,15.3 L-8.3,14.4 L-8.9,13 L-9.6,12 L-10.7,11.5 L-12.1,11.2 L-13.2,10.6 L-13.7,9.3 L-13.7,7.9 L-13.8,6.6 L-14.6,5.7 L-15.7,4.9 L-16.5,3.8 L-16.4,2.5 L-15.7,1.2 L-15.3,0 L-15.6,-1.2 L-16.3,-2.5 L-16.5,-3.8 L-15.9,-4.9 L-14.7,-5.8 L-13.8,-6.6 L-13.6,-7.8 L-13.6,-9.3 L-13.2,-10.6 L-12.2,-11.3 L-10.7,-11.6 L-9.6,-12 L-8.8,-12.9 L-8.2,-14.3 L-7.3,-15.3 L-6.1,-15.4 L-4.7,-15.1 L-3.4,-14.9 L-2.3,-15.5 L-1.2,-16.4 L-0,-16.9 L1.2,-16.5 L2.4,-15.6 L3.4,-14.9 L4.6,-15 L6,-15.3 L7.3,-15.3 L8.3,-14.4 L8.9,-13 L9.6,-12 L10.7,-11.5 L12.1,-11.2 L13.2,-10.6 L13.7,-9.3 L13.7,-7.9 L13.8,-6.6 L14.6,-5.7 L15.7,-4.9 L16.5,-3.8 L16.4,-2.5 L15.7,-1.2Z" fill="none" stroke="#86a8c4" stroke-width="1.1" opacity=".9"/><path d="M9.2,0 L9.7,0.7 L9.9,1.5 L9.5,2.2 L8.9,2.7 L8.4,3.3 L8.3,4 L8.4,4.8 L8.2,5.6 L7.7,6.1 L6.8,6.3 L6.1,6.6 L5.7,7.2 L5.5,8 L5,8.6 L4.2,8.8 L3.4,8.7 L2.7,8.6 L2.1,9 L1.4,9.6 L0.7,9.9 L0,9.8 L-0.7,9.3 L-1.3,8.9 L-2.1,9 L-2.9,9.3 L-3.6,9.3 L-4.2,8.8 L-4.7,8.1 L-5.1,7.5 L-5.7,7.2 L-6.6,7.1 L-7.3,6.8 L-7.7,6.1 L-7.7,5.3 L-7.8,4.5 L-8.3,4 L-9,3.5 L-9.5,2.9 L-9.5,2.2 L-9.2,1.4 L-9,0.7 L-9.2,0 L-9.7,-0.7 L-9.9,-1.5 L-9.5,-2.2 L-8.9,-2.7 L-8.4,-3.3 L-8.3,-4 L-8.4,-4.8 L-8.2,-5.6 L-7.7,-6.1 L-6.8,-6.3 L-6.1,-6.6 L-5.7,-7.2 L-5.5,-8 L-5,-8.6 L-4.2,-8.8 L-3.4,-8.7 L-2.7,-8.6 L-2.1,-9 L-1.4,-9.6 L-0.7,-9.9 L-0,-9.8 L0.7,-9.3 L1.3,-8.9 L2.1,-9 L2.9,-9.3 L3.6,-9.3 L4.2,-8.8 L4.7,-8.1 L5.1,-7.5 L5.7,-7.2 L6.6,-7.1 L7.3,-6.8 L7.7,-6.1 L7.7,-5.3 L7.8,-4.5 L8.3,-4 L9,-3.5 L9.5,-2.9 L9.5,-2.2 L9.2,-1.4 L9,-0.7Z" fill="none" stroke="#86a8c4" stroke-width="1.1" opacity=".9"/></g><circle r="19" fill="#24347e" stroke="#f0c25a" stroke-width="1.2"/><text y="5" text-anchor="middle" font-family="'JetBrains Mono','SF Mono',SFMono-Regular,Consolas,Menlo,monospace" font-size="15" font-weight="700" fill="#f9efcf">Lx</text></g><text x="645.5" y="324" text-anchor="middle" font-family="Georgia,'Iowan Old Style','Palatino Linotype','DejaVu Serif',serif" font-size="12.5" fill="#eef0fa">Linux</text><g transform="translate(776.5,262)"><circle r="42" fill="url(#gl)"/><g class="a spinr"><path d="M36.2,0 L34.4,2.6 L34,5.1 L34.9,8 L35.8,11 L35,13.8 L32.6,15.7 L29.9,17.3 L28.4,19.4 L28,22.3 L27.5,25.5 L25.6,27.6 L22.6,28.3 L19.5,28.5 L17.2,29.8 L15.5,32.3 L13.7,34.9 L11.1,36 L8.1,35.3 L5.1,34.2 L2.6,34.3 L0,35.8 L-2.8,37.4 L-5.6,37.2 L-8.1,35.3 L-10.2,33 L-12.6,32 L-15.5,32.3 L-18.7,32.4 L-21.2,31.1 L-22.6,28.3 L-23.5,25.3 L-25.2,23.4 L-28,22.3 L-30.9,21.1 L-32.6,18.8 L-32.6,15.7 L-32.2,12.6 L-32.8,10.1 L-34.9,8 L-37,5.6 L-37.5,2.8 L-36.2,0 L-34.4,-2.6 L-34,-5.1 L-34.9,-8 L-35.8,-11 L-35,-13.8 L-32.6,-15.7 L-29.9,-17.3 L-28.4,-19.4 L-28,-22.3 L-27.5,-25.5 L-25.6,-27.6 L-22.6,-28.3 L-19.5,-28.5 L-17.2,-29.8 L-15.5,-32.3 L-13.7,-34.9 L-11.1,-36 L-8.1,-35.3 L-5.1,-34.2 L-2.6,-34.3 L-0,-35.8 L2.8,-37.4 L5.6,-37.2 L8.1,-35.3 L10.2,-33 L12.6,-32 L15.5,-32.3 L18.7,-32.4 L21.2,-31.1 L22.6,-28.3 L23.5,-25.3 L25.2,-23.4 L28,-22.3 L30.9,-21.1 L32.6,-18.8 L32.6,-15.7 L32.2,-12.6 L32.8,-10.1 L34.9,-8 L37,-5.6 L37.5,-2.8Z" fill="#34507f" stroke="#86a8c4" stroke-width="1.2"/><path d="M28.2,0 L27.9,2.1 L28.8,4.3 L29.8,6.8 L29.4,9.1 L27.6,10.8 L25.4,12.2 L24.3,14 L24.1,16.4 L23.9,19 L22.5,20.9 L20.1,21.7 L17.6,22.1 L15.8,23.1 L14.6,25.2 L13.2,27.5 L11.2,28.6 L8.7,28.3 L6.3,27.5 L4.2,27.7 L2.2,29.1 L0,30.5 L-2.3,30.7 L-4.4,29.3 L-6.3,27.5 L-8.3,26.8 L-10.7,27.1 L-13.2,27.5 L-15.4,26.6 L-16.7,24.5 L-17.6,22.1 L-19,20.5 L-21.4,19.8 L-23.9,19 L-25.4,17.3 L-25.6,14.8 L-25.4,12.2 L-26.1,10.2 L-27.9,8.6 L-29.8,6.8 L-30.4,4.6 L-29.5,2.2 L-28.2,0 L-27.9,-2.1 L-28.8,-4.3 L-29.8,-6.8 L-29.4,-9.1 L-27.6,-10.8 L-25.4,-12.2 L-24.3,-14 L-24.1,-16.4 L-23.9,-19 L-22.5,-20.9 L-20.1,-21.7 L-17.6,-22.1 L-15.8,-23.1 L-14.6,-25.2 L-13.2,-27.5 L-11.2,-28.6 L-8.7,-28.3 L-6.3,-27.5 L-4.2,-27.7 L-2.2,-29.1 L-0,-30.5 L2.3,-30.7 L4.4,-29.3 L6.3,-27.5 L8.3,-26.8 L10.7,-27.1 L13.2,-27.5 L15.4,-26.6 L16.7,-24.5 L17.6,-22.1 L19,-20.5 L21.4,-19.8 L23.9,-19 L25.4,-17.3 L25.6,-14.8 L25.4,-12.2 L26.1,-10.2 L27.9,-8.6 L29.8,-6.8 L30.4,-4.6 L29.5,-2.2Z" fill="none" stroke="#86a8c4" stroke-width="1.1" opacity=".9"/><path d="M21.7,0 L22.5,1.7 L23.3,3.5 L23.2,5.3 L22,6.8 L20.4,8 L19.5,9.4 L19.5,11.3 L19.5,13.3 L18.6,14.9 L16.8,15.6 L14.9,16.1 L13.5,16.9 L12.7,18.6 L11.8,20.4 L10.3,21.5 L8.4,21.4 L6.5,20.9 L4.8,21.1 L3.4,22.3 L1.8,23.5 L0,23.8 L-1.7,22.9 L-3.3,21.7 L-4.8,21.1 L-6.6,21.5 L-8.6,22 L-10.3,21.5 L-11.5,19.9 L-12.3,18.1 L-13.5,16.9 L-15.3,16.5 L-17.3,16.1 L-18.6,14.9 L-19,12.9 L-19,10.9 L-19.5,9.4 L-21,8.2 L-22.6,7 L-23.2,5.3 L-22.7,3.4 L-21.8,1.6 L-21.7,0 L-22.5,-1.7 L-23.3,-3.5 L-23.2,-5.3 L-22,-6.8 L-20.4,-8 L-19.5,-9.4 L-19.5,-11.3 L-19.5,-13.3 L-18.6,-14.9 L-16.8,-15.6 L-14.9,-16.1 L-13.5,-16.9 L-12.7,-18.6 L-11.8,-20.4 L-10.3,-21.5 L-8.4,-21.4 L-6.5,-20.9 L-4.8,-21.1 L-3.4,-22.3 L-1.8,-23.5 L-0,-23.8 L1.7,-22.9 L3.3,-21.7 L4.8,-21.1 L6.6,-21.5 L8.6,-22 L10.3,-21.5 L11.5,-19.9 L12.3,-18.1 L13.5,-16.9 L15.3,-16.5 L17.3,-16.1 L18.6,-14.9 L19,-12.9 L19,-10.9 L19.5,-9.4 L21,-8.2 L22.6,-7 L23.2,-5.3 L22.7,-3.4 L21.8,-1.6Z" fill="none" stroke="#86a8c4" stroke-width="1.1" opacity=".9"/><path d="M15.9,0 L16.7,1.2 L16.7,2.5 L15.9,3.6 L14.9,4.6 L14.3,5.6 L14.4,6.9 L14.5,8.4 L14,9.5 L12.8,10.2 L11.4,10.6 L10.4,11.3 L9.9,12.5 L9.4,13.8 L8.5,14.6 L7.1,14.7 L5.7,14.5 L4.5,14.7 L3.5,15.5 L2.5,16.5 L1.3,16.9 L0,16.3 L-1.2,15.5 L-2.3,15.2 L-3.5,15.5 L-4.9,16 L-6.2,15.7 L-7.1,14.7 L-7.8,13.5 L-8.6,12.7 L-9.9,12.5 L-11.4,12.2 L-12.4,11.5 L-12.8,10.2 L-12.8,8.8 L-13.3,7.7 L-14.4,6.9 L-15.6,6.1 L-16.2,5 L-15.9,3.6 L-15.4,2.3 L-15.3,1.1 L-15.9,0 L-16.7,-1.2 L-16.7,-2.5 L-15.9,-3.6 L-14.9,-4.6 L-14.3,-5.6 L-14.4,-6.9 L-14.5,-8.4 L-14,-9.5 L-12.8,-10.2 L-11.4,-10.6 L-10.4,-11.3 L-9.9,-12.5 L-9.4,-13.8 L-8.5,-14.6 L-7.1,-14.7 L-5.7,-14.5 L-4.5,-14.7 L-3.5,-15.5 L-2.5,-16.5 L-1.3,-16.9 L-0,-16.3 L1.2,-15.5 L2.3,-15.2 L3.5,-15.5 L4.9,-16 L6.2,-15.7 L7.1,-14.7 L7.8,-13.5 L8.6,-12.7 L9.9,-12.5 L11.4,-12.2 L12.4,-11.5 L12.8,-10.2 L12.8,-8.8 L13.3,-7.7 L14.4,-6.9 L15.6,-6.1 L16.2,-5 L15.9,-3.6 L15.4,-2.3 L15.3,-1.1Z" fill="none" stroke="#86a8c4" stroke-width="1.1" opacity=".9"/><path d="M9.8,0 L9.9,0.7 L9.5,1.4 L8.9,2 L8.6,2.7 L8.7,3.4 L8.9,4.3 L8.6,5 L8,5.4 L7.2,5.7 L6.6,6.1 L6.4,6.9 L6.1,7.7 L5.6,8.2 L4.8,8.4 L4,8.3 L3.3,8.4 L2.8,8.9 L2.2,9.6 L1.5,9.9 L0.7,9.6 L0,9.2 L-0.7,9 L-1.4,9.3 L-2.2,9.6 L-2.9,9.5 L-3.5,9 L-4,8.3 L-4.5,7.8 L-5.3,7.7 L-6.1,7.7 L-6.8,7.3 L-7.1,6.6 L-7.2,5.7 L-7.5,5.1 L-8.1,4.7 L-8.9,4.3 L-9.3,3.6 L-9.2,2.8 L-8.9,2 L-8.9,1.3 L-9.3,0.7 L-9.8,0 L-9.9,-0.7 L-9.5,-1.4 L-8.9,-2 L-8.6,-2.7 L-8.7,-3.4 L-8.9,-4.3 L-8.6,-5 L-8,-5.4 L-7.2,-5.7 L-6.6,-6.1 L-6.4,-6.9 L-6.1,-7.7 L-5.6,-8.2 L-4.8,-8.4 L-4,-8.3 L-3.3,-8.4 L-2.8,-8.9 L-2.2,-9.6 L-1.5,-9.9 L-0.7,-9.6 L-0,-9.2 L0.7,-9 L1.4,-9.3 L2.2,-9.6 L2.9,-9.5 L3.5,-9 L4,-8.3 L4.5,-7.8 L5.3,-7.7 L6.1,-7.7 L6.8,-7.3 L7.1,-6.6 L7.2,-5.7 L7.5,-5.1 L8.1,-4.7 L8.9,-4.3 L9.3,-3.6 L9.2,-2.8 L8.9,-2 L8.9,-1.3 L9.3,-0.7Z" fill="none" stroke="#86a8c4" stroke-width="1.1" opacity=".9"/></g><circle r="19" fill="#24347e" stroke="#f0c25a" stroke-width="1.2"/><text y="5" text-anchor="middle" font-family="'JetBrains Mono','SF Mono',SFMono-Regular,Consolas,Menlo,monospace" font-size="15" font-weight="700" fill="#f9efcf">Git</text></g><text x="776.5" y="324" text-anchor="middle" font-family="Georgia,'Iowan Old Style','Palatino Linotype','DejaVu Serif',serif" font-size="12.5" fill="#eef0fa">Git</text><rect class="grain" width="900" height="360" fill="#000" opacity=".5" filter="url(#noise)"/></svg>