<svg xmlns="http://www.w3.org/2000/svg" xmlns:xlink="http://www.w3.org/1999/xlink" viewBox="0 0 1200 60" role="img" aria-label="Decorative water line with lily pads"><defs></defs><path d="M0.0,30.0 L12.0,30.7 L24.0,31.3 L36.0,32.0 L48.0,32.5 L60.0,33.0 L72.0,33.4 L84.0,33.7 L96.0,33.9 L108.0,34.0 L120.0,34.0 L132.0,33.8 L144.0,33.5 L156.0,33.2 L168.0,32.7 L180.0,32.2 L192.0,31.6 L204.0,30.9 L216.0,30.2 L228.0,29.5 L240.0,28.9 L252.0,28.2 L264.0,27.6 L276.0,27.1 L288.0,26.7 L300.0,26.4 L312.0,26.1 L324.0,26.0 L336.0,26.0 L348.0,26.1 L360.0,26.4 L372.0,26.7 L384.0,27.1 L396.0,27.7 L408.0,28.2 L420.0,28.9 L432.0,29.6 L444.0,30.2 L456.0,30.9 L468.0,31.6 L480.0,32.2 L492.0,32.7 L504.0,33.2 L516.0,33.5 L528.0,33.8 L540.0,34.0 L552.0,34.0 L564.0,33.9 L576.0,33.7 L588.0,33.4 L600.0,33.0 L612.0,32.5 L624.0,32.0 L636.0,31.3 L648.0,30.7 L660.0,30.0 L672.0,29.3 L684.0,28.6 L696.0,28.0 L708.0,27.5 L720.0,27.0 L732.0,26.6 L744.0,26.3 L756.0,26.1 L768.0,26.0 L780.0,26.0 L792.0,26.2 L804.0,26.5 L816.0,26.8 L828.0,27.3 L840.0,27.9 L852.0,28.5 L864.0,29.1 L876.0,29.8 L888.0,30.5 L900.0,31.1 L912.0,31.8 L924.0,32.4 L936.0,32.9 L948.0,33.3 L960.0,33.6 L972.0,33.9 L984.0,34.0 L996.0,34.0 L1008.0,33.9 L1020.0,33.6 L1032.0,33.3 L1044.0,32.9 L1056.0,32.3 L1068.0,31.7 L1080.0,31.1 L1092.0,30.4 L1104.0,29.7 L1116.0,29.1 L1128.0,28.4 L1140.0,27.8 L1152.0,27.3 L1164.0,26.8 L1176.0,26.4 L1188.0,26.2 L1200.0,26.0" fill="none" stroke="#9bb8a2" stroke-width="1.4"/><ellipse cx="190" cy="35.7" rx="24" ry="5.5" fill="none" stroke="#2d7f8f" stroke-width="1" opacity=".5"><animate attributeName="rx" values="18;35" dur="10s" repeatCount="indefinite"/><animate attributeName="opacity" values=".6;0" dur="10s" repeatCount="indefinite"/></ellipse><g transform="translate(0 0)"><path d="M190.0,29.7 L184.5,20.5 L184.9,20.4 L185.3,20.2 L185.6,20.0 L186.0,19.8 L186.4,19.6 L186.7,19.4 L187.1,19.2 L187.5,19.0 L187.8,18.8 L188.2,18.6 L188.7,18.4 L189.1,18.3 L189.5,18.2 L190.0,18.2 L190.4,18.2 L190.8,18.3 L191.3,18.4 L191.7,18.6 L192.1,18.7 L192.5,18.9 L192.9,19.2 L193.2,19.4 L193.6,19.6 L193.9,19.8 L194.3,20.0 L194.7,20.2 L195.0,20.3 L195.4,20.5 L195.8,20.7 L196.2,20.8 L196.6,21.0 L197.0,21.1 L197.4,21.3 L197.8,21.5 L198.2,21.8 L198.5,22.1 L198.8,22.4 L199.1,22.7 L199.3,23.1 L199.5,23.5 L199.7,23.9 L199.8,24.3 L199.9,24.8 L200.0,25.2 L200.0,25.6 L200.1,26.0 L200.1,26.4 L200.2,26.8 L200.3,27.2 L200.4,27.6 L200.5,28.0 L200.6,28.4 L200.7,28.8 L200.9,29.2 L201.0,29.7 L201.1,30.1 L201.2,30.5 L201.2,31.0 L201.3,31.4 L201.2,31.8 L201.1,32.3 L201.0,32.7 L200.8,33.1 L200.6,33.5 L200.4,33.9 L200.1,34.2 L199.8,34.5 L199.5,34.9 L199.2,35.2 L198.9,35.5 L198.7,35.8 L198.4,36.1 L198.1,36.4 L197.9,36.7 L197.7,37.1 L197.4,37.4 L197.2,37.8 L197.0,38.1 L196.7,38.5 L196.4,38.8 L196.1,39.1 L195.8,39.4 L195.4,39.7 L195.1,39.9 L194.6,40.1 L194.2,40.2 L193.8,40.3 L193.4,40.4 L192.9,40.4 L192.5,40.4 L192.0,40.4 L191.6,40.3 L191.2,40.3 L190.8,40.2 L190.4,40.2 L190.0,40.2 L189.6,40.2 L189.1,40.3 L188.7,40.3 L188.3,40.3 L187.9,40.4 L187.4,40.4 L187.0,40.4 L186.6,40.4 L186.1,40.3 L185.7,40.2 L185.3,40.1 L184.9,39.9 L184.5,39.7 L184.2,39.4 L183.8,39.1 L183.5,38.8 L183.3,38.4 L183.0,38.1 L182.8,37.7 L182.5,37.3 L182.3,37.0 L182.1,36.7 L181.8,36.3 L181.6,36.0 L181.3,35.7 L181.0,35.4 L180.7,35.1 L180.4,34.8 L180.1,34.5 L179.8,34.1 L179.6,33.8 L179.3,33.4 L179.1,33.0 L179.0,32.6 L178.8,32.2 L178.8,31.8 L178.7,31.3 L178.8,30.9 L178.8,30.4 L178.9,30.0 L179.0,29.6 L179.1,29.2 L179.3,28.8 L179.4,28.4 L179.5,28.0 L179.6,27.6 L179.7,27.2 L179.8,26.8 L179.9,26.4 L179.9,26.0 L180.0,25.5 L180.1,25.1 L180.1,24.7 L180.2,24.2 L180.4,23.8 L180.5,23.4 L180.7,23.0 L181.0,22.6 L181.2,22.3 L181.6,22.0 L181.9,21.7 L182.3,21.5 L182.7,21.3 L183.1,21.1Z" fill="#6a934f"/><circle cx="190" cy="29.657685575044383" r="4.6" fill="#b1ba42" opacity=".5"/><line x1="190" y1="29.657685575044383" x2="198.2" y2="24.9" stroke="#f5f4e1" stroke-width="1" opacity=".55"/><line x1="190" y1="29.657685575044383" x2="199.4" y2="30.6" stroke="#f5f4e1" stroke-width="1" opacity=".55"/><line x1="190" y1="29.657685575044383" x2="197.0" y2="36.0" stroke="#f5f4e1" stroke-width="1" opacity=".55"/><line x1="190" y1="29.657685575044383" x2="192.0" y2="38.9" stroke="#f5f4e1" stroke-width="1" opacity=".55"/><line x1="190" y1="29.657685575044383" x2="186.2" y2="38.3" stroke="#f5f4e1" stroke-width="1" opacity=".55"/><line x1="190" y1="29.657685575044383" x2="181.8" y2="34.4" stroke="#f5f4e1" stroke-width="1" opacity=".55"/><line x1="190" y1="29.657685575044383" x2="180.6" y2="28.7" stroke="#f5f4e1" stroke-width="1" opacity=".55"/><line x1="190" y1="29.657685575044383" x2="183.0" y2="23.3" stroke="#f5f4e1" stroke-width="1" opacity=".55"/><line x1="190" y1="29.657685575044383" x2="188.0" y2="20.4" stroke="#f5f4e1" stroke-width="1" opacity=".55"/><line x1="190" y1="29.657685575044383" x2="193.8" y2="21.0" stroke="#f5f4e1" stroke-width="1" opacity=".55"/></g><ellipse cx="600" cy="37.0" rx="35" ry="8.0" fill="none" stroke="#2d7f8f" stroke-width="1" opacity=".5"><animate attributeName="rx" values="26;51" dur="10s" repeatCount="indefinite"/><animate attributeName="opacity" values=".6;0" dur="10s" repeatCount="indefinite"/></ellipse><g transform="translate(0 0)"><path d="M600.0,31.0 L592.0,17.7 L592.6,17.5 L593.1,17.3 L593.7,17.0 L594.2,16.7 L594.7,16.4 L595.2,16.1 L595.8,15.8 L596.3,15.5 L596.9,15.2 L597.5,14.9 L598.1,14.7 L598.7,14.5 L599.3,14.4 L599.9,14.4 L600.6,14.4 L601.2,14.5 L601.8,14.7 L602.4,14.9 L603.0,15.1 L603.6,15.4 L604.1,15.7 L604.7,16.1 L605.2,16.4 L605.7,16.7 L606.3,17.0 L606.8,17.2 L607.3,17.5 L607.9,17.7 L608.4,17.9 L609.0,18.1 L609.6,18.4 L610.2,18.6 L610.8,18.9 L611.3,19.2 L611.9,19.5 L612.4,20.0 L612.8,20.4 L613.2,20.9 L613.6,21.5 L613.8,22.0 L614.1,22.6 L614.2,23.2 L614.4,23.9 L614.5,24.5 L614.6,25.1 L614.7,25.7 L614.7,26.3 L614.8,26.9 L615.0,27.5 L615.1,28.1 L615.3,28.7 L615.4,29.2 L615.6,29.8 L615.8,30.4 L616.0,31.0 L616.2,31.6 L616.3,32.3 L616.4,32.9 L616.4,33.5 L616.3,34.2 L616.2,34.8 L616.0,35.4 L615.8,36.0 L615.5,36.6 L615.1,37.1 L614.7,37.6 L614.3,38.1 L613.9,38.6 L613.4,39.0 L613.0,39.5 L612.6,39.9 L612.2,40.3 L611.8,40.8 L611.5,41.3 L611.1,41.8 L610.8,42.3 L610.5,42.8 L610.1,43.3 L609.7,43.8 L609.3,44.3 L608.9,44.8 L608.4,45.2 L607.9,45.6 L607.3,45.9 L606.8,46.2 L606.2,46.4 L605.5,46.5 L604.9,46.6 L604.2,46.6 L603.6,46.6 L603.0,46.6 L602.3,46.5 L601.7,46.5 L601.1,46.4 L600.5,46.4 L599.9,46.4 L599.4,46.4 L598.8,46.4 L598.2,46.5 L597.5,46.5 L596.9,46.6 L596.3,46.6 L595.6,46.6 L595.0,46.6 L594.4,46.5 L593.7,46.4 L593.1,46.2 L592.6,45.9 L592.0,45.6 L591.5,45.2 L591.0,44.7 L590.6,44.3 L590.2,43.8 L589.8,43.2 L589.5,42.7 L589.1,42.2 L588.8,41.7 L588.4,41.2 L588.1,40.7 L587.7,40.3 L587.3,39.8 L586.9,39.4 L586.5,38.9 L586.1,38.5 L585.6,38.0 L585.2,37.5 L584.8,37.0 L584.5,36.5 L584.2,35.9 L583.9,35.3 L583.8,34.7 L583.7,34.1 L583.6,33.4 L583.7,32.8 L583.7,32.2 L583.9,31.5 L584.0,30.9 L584.2,30.3 L584.4,29.7 L584.6,29.1 L584.8,28.5 L584.9,28.0 L585.1,27.4 L585.2,26.8 L585.3,26.2 L585.4,25.6 L585.4,25.0 L585.5,24.4 L585.6,23.8 L585.8,23.1 L586.0,22.5 L586.2,21.9 L586.5,21.4 L586.9,20.8 L587.3,20.3 L587.7,19.9 L588.2,19.5 L588.8,19.1 L589.3,18.8 L589.9,18.6Z" fill="#6a934f"/><circle cx="600" cy="31.013946909758552" r="6.7" fill="#b1ba42" opacity=".5"/><line x1="600" y1="31.013946909758552" x2="611.9" y2="24.1" stroke="#f5f4e1" stroke-width="1" opacity=".55"/><line x1="600" y1="31.013946909758552" x2="613.7" y2="32.5" stroke="#f5f4e1" stroke-width="1" opacity=".55"/><line x1="600" y1="31.013946909758552" x2="610.2" y2="40.2" stroke="#f5f4e1" stroke-width="1" opacity=".55"/><line x1="600" y1="31.013946909758552" x2="602.9" y2="44.5" stroke="#f5f4e1" stroke-width="1" opacity=".55"/><line x1="600" y1="31.013946909758552" x2="594.4" y2="43.6" stroke="#f5f4e1" stroke-width="1" opacity=".55"/><line x1="600" y1="31.013946909758552" x2="588.1" y2="37.9" stroke="#f5f4e1" stroke-width="1" opacity=".55"/><line x1="600" y1="31.013946909758552" x2="586.3" y2="29.6" stroke="#f5f4e1" stroke-width="1" opacity=".55"/><line x1="600" y1="31.013946909758552" x2="589.8" y2="21.8" stroke="#f5f4e1" stroke-width="1" opacity=".55"/><line x1="600" y1="31.013946909758552" x2="597.1" y2="17.6" stroke="#f5f4e1" stroke-width="1" opacity=".55"/><line x1="600" y1="31.013946909758552" x2="605.6" y2="18.4" stroke="#f5f4e1" stroke-width="1" opacity=".55"/></g><ellipse cx="1010" cy="37.8" rx="24" ry="5.5" fill="none" stroke="#2d7f8f" stroke-width="1" opacity=".5"><animate attributeName="rx" values="18;35" dur="10s" repeatCount="indefinite"/><animate attributeName="opacity" values=".6;0" dur="10s" repeatCount="indefinite"/></ellipse><g transform="translate(0 0)"><path d="M1010.0,31.8 L1004.5,22.7 L1004.9,22.6 L1005.3,22.4 L1005.6,22.2 L1006.0,22.0 L1006.4,21.8 L1006.7,21.6 L1007.1,21.4 L1007.5,21.2 L1007.8,21.0 L1008.2,20.8 L1008.7,20.6 L1009.1,20.5 L1009.5,20.4 L1010.0,20.4 L1010.4,20.4 L1010.8,20.5 L1011.3,20.6 L1011.7,20.7 L1012.1,20.9 L1012.5,21.1 L1012.9,21.3 L1013.2,21.6 L1013.6,21.8 L1013.9,22.0 L1014.3,22.2 L1014.7,22.4 L1015.0,22.5 L1015.4,22.7 L1015.8,22.8 L1016.2,23.0 L1016.6,23.1 L1017.0,23.3 L1017.4,23.5 L1017.8,23.7 L1018.2,23.9 L1018.5,24.2 L1018.8,24.5 L1019.1,24.9 L1019.3,25.3 L1019.5,25.7 L1019.7,26.1 L1019.8,26.5 L1019.9,26.9 L1020.0,27.4 L1020.0,27.8 L1020.1,28.2 L1020.1,28.6 L1020.2,29.0 L1020.3,29.4 L1020.4,29.8 L1020.5,30.2 L1020.6,30.6 L1020.7,31.0 L1020.9,31.4 L1021.0,31.8 L1021.1,32.3 L1021.2,32.7 L1021.2,33.1 L1021.3,33.6 L1021.2,34.0 L1021.1,34.4 L1021.0,34.9 L1020.8,35.3 L1020.6,35.7 L1020.4,36.0 L1020.1,36.4 L1019.8,36.7 L1019.5,37.0 L1019.2,37.3 L1018.9,37.6 L1018.7,37.9 L1018.4,38.2 L1018.1,38.6 L1017.9,38.9 L1017.7,39.2 L1017.4,39.6 L1017.2,39.9 L1017.0,40.3 L1016.7,40.7 L1016.4,41.0 L1016.1,41.3 L1015.8,41.6 L1015.4,41.9 L1015.1,42.1 L1014.6,42.3 L1014.2,42.4 L1013.8,42.5 L1013.4,42.5 L1012.9,42.6 L1012.5,42.6 L1012.0,42.5 L1011.6,42.5 L1011.2,42.5 L1010.8,42.4 L1010.4,42.4 L1010.0,42.4 L1009.6,42.4 L1009.1,42.4 L1008.7,42.5 L1008.3,42.5 L1007.9,42.5 L1007.4,42.6 L1007.0,42.6 L1006.6,42.5 L1006.1,42.5 L1005.7,42.4 L1005.3,42.2 L1004.9,42.1 L1004.5,41.8 L1004.2,41.6 L1003.8,41.3 L1003.5,40.9 L1003.3,40.6 L1003.0,40.2 L1002.8,39.9 L1002.5,39.5 L1002.3,39.2 L1002.1,38.8 L1001.8,38.5 L1001.6,38.2 L1001.3,37.9 L1001.0,37.6 L1000.7,37.3 L1000.4,37.0 L1000.1,36.6 L999.8,36.3 L999.6,36.0 L999.3,35.6 L999.1,35.2 L999.0,34.8 L998.8,34.4 L998.8,33.9 L998.7,33.5 L998.8,33.1 L998.8,32.6 L998.9,32.2 L999.0,31.8 L999.1,31.3 L999.3,30.9 L999.4,30.5 L999.5,30.1 L999.6,29.7 L999.7,29.3 L999.8,28.9 L999.9,28.5 L999.9,28.1 L1000.0,27.7 L1000.1,27.3 L1000.1,26.8 L1000.2,26.4 L1000.4,26.0 L1000.5,25.6 L1000.7,25.2 L1001.0,24.8 L1001.2,24.5 L1001.6,24.2 L1001.9,23.9 L1002.3,23.7 L1002.7,23.5 L1003.1,23.3Z" fill="#6a934f"/><circle cx="1010" cy="31.831365256936245" r="4.6" fill="#b1ba42" opacity=".5"/><line x1="1010" y1="31.831365256936245" x2="1018.2" y2="27.1" stroke="#f5f4e1" stroke-width="1" opacity=".55"/><line x1="1010" y1="31.831365256936245" x2="1019.4" y2="32.8" stroke="#f5f4e1" stroke-width="1" opacity=".55"/><line x1="1010" y1="31.831365256936245" x2="1017.0" y2="38.2" stroke="#f5f4e1" stroke-width="1" opacity=".55"/><line x1="1010" y1="31.831365256936245" x2="1012.0" y2="41.1" stroke="#f5f4e1" stroke-width="1" opacity=".55"/><line x1="1010" y1="31.831365256936245" x2="1006.2" y2="40.5" stroke="#f5f4e1" stroke-width="1" opacity=".55"/><line x1="1010" y1="31.831365256936245" x2="1001.8" y2="36.6" stroke="#f5f4e1" stroke-width="1" opacity=".55"/><line x1="1010" y1="31.831365256936245" x2="1000.6" y2="30.8" stroke="#f5f4e1" stroke-width="1" opacity=".55"/><line x1="1010" y1="31.831365256936245" x2="1003.0" y2="25.5" stroke="#f5f4e1" stroke-width="1" opacity=".55"/><line x1="1010" y1="31.831365256936245" x2="1008.0" y2="22.6" stroke="#f5f4e1" stroke-width="1" opacity=".55"/><line x1="1010" y1="31.831365256936245" x2="1013.8" y2="23.2" stroke="#f5f4e1" stroke-width="1" opacity=".55"/></g><circle r="2.6" fill="#d9a21b"><animateMotion dur="16s" repeatCount="indefinite" path="M0.0,30.0 L12.0,30.7 L24.0,31.3 L36.0,32.0 L48.0,32.5 L60.0,33.0 L72.0,33.4 L84.0,33.7 L96.0,33.9 L108.0,34.0 L120.0,34.0 L132.0,33.8 L144.0,33.5 L156.0,33.2 L168.0,32.7 L180.0,32.2 L192.0,31.6 L204.0,30.9 L216.0,30.2 L228.0,29.5 L240.0,28.9 L252.0,28.2 L264.0,27.6 L276.0,27.1 L288.0,26.7 L300.0,26.4 L312.0,26.1 L324.0,26.0 L336.0,26.0 L348.0,26.1 L360.0,26.4 L372.0,26.7 L384.0,27.1 L396.0,27.7 L408.0,28.2 L420.0,28.9 L432.0,29.6 L444.0,30.2 L456.0,30.9 L468.0,31.6 L480.0,32.2 L492.0,32.7 L504.0,33.2 L516.0,33.5 L528.0,33.8 L540.0,34.0 L552.0,34.0 L564.0,33.9 L576.0,33.7 L588.0,33.4 L600.0,33.0 L612.0,32.5 L624.0,32.0 L636.0,31.3 L648.0,30.7 L660.0,30.0 L672.0,29.3 L684.0,28.6 L696.0,28.0 L708.0,27.5 L720.0,27.0 L732.0,26.6 L744.0,26.3 L756.0,26.1 L768.0,26.0 L780.0,26.0 L792.0,26.2 L804.0,26.5 L816.0,26.8 L828.0,27.3 L840.0,27.9 L852.0,28.5 L864.0,29.1 L876.0,29.8 L888.0,30.5 L900.0,31.1 L912.0,31.8 L924.0,32.4 L936.0,32.9 L948.0,33.3 L960.0,33.6 L972.0,33.9 L984.0,34.0 L996.0,34.0 L1008.0,33.9 L1020.0,33.6 L1032.0,33.3 L1044.0,32.9 L1056.0,32.3 L1068.0,31.7 L1080.0,31.1 L1092.0,30.4 L1104.0,29.7 L1116.0,29.1 L1128.0,28.4 L1140.0,27.8 L1152.0,27.3 L1164.0,26.8 L1176.0,26.4 L1188.0,26.2 L1200.0,26.0"/></circle></svg>