<svg xmlns="http://www.w3.org/2000/svg" viewBox="0 0 1200 54" width="1200" height="54" role="presentation">
    <path d="M 0,31.0 L 15,32.1 L 30,32.8 L 45,33.0 L 60,32.9 L 75,32.5 L 90,32.1 L 105,31.6 L 120,31.2 L 135,31.0 L 150,31.0 L 165,31.3 L 180,31.7 L 195,32.1 L 210,32.6 L 225,32.9 L 240,33.0 L 255,32.7 L 270,32.0 L 285,30.8 L 300,29.2 L 315,27.2 L 330,25.0 L 345,22.6 L 360,20.4 L 375,18.3 L 390,16.7 L 405,15.5 L 420,15.0 L 435,15.2 L 450,16.0 L 465,17.4 L 480,19.2 L 495,21.4 L 510,23.7 L 525,26.0 L 540,28.1 L 555,30.0 L 570,31.4 L 585,32.4 L 600,32.9 L 615,33.0 L 630,32.8 L 645,32.4 L 660,31.9 L 675,31.5 L 690,31.1 L 705,31.0 L 720,31.1 L 735,31.4 L 750,31.8 L 765,32.3 L 780,32.7 L 795,33.0 L 810,32.9 L 825,32.5 L 840,31.7 L 855,30.4 L 870,28.6 L 885,26.6 L 900,24.3 L 915,21.9 L 930,19.7 L 945,17.8 L 960,16.3 L 975,15.3 L 990,15.0 L 1005,15.3 L 1020,16.3 L 1035,17.9 L 1050,19.8 L 1065,22.1 L 1080,24.4 L 1095,26.7 L 1110,28.7 L 1125,30.4 L 1140,31.7 L 1155,32.6 L 1170,32.9 L 1185,33.0 L 1200,32.7" fill="none" stroke="rgba(86, 207, 225, 0.22)" stroke-width="1.2"/>
    <path d="M 0,31.0 L 15,32.1 L 30,32.8 L 45,33.0 L 60,32.9 L 75,32.5 L 90,32.1 L 105,31.6 L 120,31.2 L 135,31.0 L 150,31.0 L 165,31.3 L 180,31.7 L 195,32.1 L 210,32.6 L 225,32.9 L 240,33.0 L 255,32.7 L 270,32.0 L 285,30.8 L 300,29.2 L 315,27.2 L 330,25.0 L 345,22.6 L 360,20.4 L 375,18.3 L 390,16.7 L 405,15.5 L 420,15.0 L 435,15.2 L 450,16.0 L 465,17.4 L 480,19.2 L 495,21.4 L 510,23.7 L 525,26.0 L 540,28.1 L 555,30.0 L 570,31.4 L 585,32.4 L 600,32.9 L 615,33.0 L 630,32.8 L 645,32.4 L 660,31.9 L 675,31.5 L 690,31.1 L 705,31.0 L 720,31.1 L 735,31.4 L 750,31.8 L 765,32.3 L 780,32.7 L 795,33.0 L 810,32.9 L 825,32.5 L 840,31.7 L 855,30.4 L 870,28.6 L 885,26.6 L 900,24.3 L 915,21.9 L 930,19.7 L 945,17.8 L 960,16.3 L 975,15.3 L 990,15.0 L 1005,15.3 L 1020,16.3 L 1035,17.9 L 1050,19.8 L 1065,22.1 L 1080,24.4 L 1095,26.7 L 1110,28.7 L 1125,30.4 L 1140,31.7 L 1155,32.6 L 1170,32.9 L 1185,33.0 L 1200,32.7" fill="none" stroke="#56cfe1" stroke-width="1.5" stroke-dasharray="12 24">
        <animate attributeName="stroke-dashoffset" values="0;-360" dur="20s" repeatCount="indefinite"/>
    </path>

    <!-- Center Medallion Node -->
    <circle cx="600" cy="27" r="14" fill="#09111c" stroke="rgba(86, 207, 225, 0.22)" stroke-width="1.2"/>
    <circle cx="600" cy="27" r="7" fill="#e0a96d"/>
    <circle cx="600" cy="27" r="11" fill="none" stroke="#72efdd" stroke-width="1" opacity="0.6">
        <animate attributeName="r" values="7;16" dur="3s" repeatCount="indefinite"/>
        <animate attributeName="opacity" values="0.8;0" dur="3s" repeatCount="indefinite"/>
    </circle>

    <!-- Traveling Particle -->
    <circle r="3.2" fill="#72efdd">
        <animateMotion dur="18s" repeatCount="indefinite" path="M 0,31.0 L 15,32.1 L 30,32.8 L 45,33.0 L 60,32.9 L 75,32.5 L 90,32.1 L 105,31.6 L 120,31.2 L 135,31.0 L 150,31.0 L 165,31.3 L 180,31.7 L 195,32.1 L 210,32.6 L 225,32.9 L 240,33.0 L 255,32.7 L 270,32.0 L 285,30.8 L 300,29.2 L 315,27.2 L 330,25.0 L 345,22.6 L 360,20.4 L 375,18.3 L 390,16.7 L 405,15.5 L 420,15.0 L 435,15.2 L 450,16.0 L 465,17.4 L 480,19.2 L 495,21.4 L 510,23.7 L 525,26.0 L 540,28.1 L 555,30.0 L 570,31.4 L 585,32.4 L 600,32.9 L 615,33.0 L 630,32.8 L 645,32.4 L 660,31.9 L 675,31.5 L 690,31.1 L 705,31.0 L 720,31.1 L 735,31.4 L 750,31.8 L 765,32.3 L 780,32.7 L 795,33.0 L 810,32.9 L 825,32.5 L 840,31.7 L 855,30.4 L 870,28.6 L 885,26.6 L 900,24.3 L 915,21.9 L 930,19.7 L 945,17.8 L 960,16.3 L 975,15.3 L 990,15.0 L 1005,15.3 L 1020,16.3 L 1035,17.9 L 1050,19.8 L 1065,22.1 L 1080,24.4 L 1095,26.7 L 1110,28.7 L 1125,30.4 L 1140,31.7 L 1155,32.6 L 1170,32.9 L 1185,33.0 L 1200,32.7"/>
    </circle>
</svg>